<svg xmlns="http://www.w3.org/2000/svg" xmlns:xlink="http://www.w3.org/1999/xlink" viewBox="0 0 252.26 251.98"><defs><style>.cls-1{mix-blend-mode:multiply;fill:url(#radial-gradient);}.cls-2{isolation:isolate;}.cls-3{fill:#ef0;}.cls-4{fill:#00acc2;}.cls-5{fill:#fb8b00;}.cls-6{fill:#df3b37;}.cls-7{fill:#474747;}.cls-8{opacity:0.5;}.cls-9{clip-path:url(#clip-path);}.cls-10{opacity:0.12;mix-blend-mode:color-burn;fill:url(#radial-gradient-3);}.cls-11{font-size:5.84px;}.cls-11,.cls-14,.cls-18,.cls-19,.cls-20,.cls-22{fill:#fff;}.cls-11,.cls-14,.cls-15,.cls-18,.cls-19,.cls-22{font-family:ElleFutura-Bold, Elle Futura;font-weight:700;}.cls-12{letter-spacing:-0.12em;}.cls-13{letter-spacing:-0.12em;}.cls-14{font-size:12.21px;}.cls-15{font-size:4.75px;fill:#7f0506;}.cls-16{font-size:12.84px;}.cls-17{letter-spacing:0.02em;}.cls-18{font-size:11.23px;}.cls-19{font-size:10.01px;}.cls-20{font-size:4.23px;font-family:ElleFutura-Medium, Elle Futura;font-weight:500;}.cls-21{font-family:ElleFutura-Heavy, Elle Futura;font-weight:800;}.cls-22{font-size:13.03px;}</style><radialGradient id="radial-gradient" cx="126.13" cy="125.99" r="120.59" gradientUnits="userSpaceOnUse"><stop offset="0.47" stop-color="#fff"/><stop offset="0.6" stop-color="#fdfdfd"/><stop offset="0.68" stop-color="#f5f5f5"/><stop offset="0.74" stop-color="#e7e7e7"/><stop offset="0.79" stop-color="#d4d4d4"/><stop offset="0.83" stop-color="#bbb"/><stop offset="0.87" stop-color="#9c9c9c"/><stop offset="0.91" stop-color="#787878"/><stop offset="0.95" stop-color="#4d4d4d"/><stop offset="0.98" stop-color="#1f1f1f"/><stop offset="1"/></radialGradient><clipPath id="clip-path"><ellipse class="cls-1" cx="126.13" cy="125.99" rx="120.38" ry="120.8"/></clipPath><radialGradient id="radial-gradient-3" cx="126.13" cy="126.92" r="120.38" gradientTransform="translate(0 -1.37)" gradientUnits="userSpaceOnUse"><stop offset="0.96" stop-color="#fff"/><stop offset="0.97" stop-color="#f8f8f7"/><stop offset="0.97" stop-color="#e5e3e0"/><stop offset="0.98" stop-color="#c5c2bb"/><stop offset="0.99" stop-color="#9a9387"/><stop offset="1" stop-color="#635947"/><stop offset="1" stop-color="#433721"/></radialGradient></defs><g class="cls-2"><g id="Layer_2" data-name="Layer 2"><g id="Layer_1-2" data-name="Layer 1"><path class="cls-3" d="M82.28,8.54l43.85,117.74L170,8.54a116.81,116.81,0,0,0-87.7,0Z"/><path class="cls-4" d="M16.86,64.27l109.27,62L84,7.9A116.82,116.82,0,0,0,16.86,64.27Z"/><path class="cls-5" d="M2.57,149l123.56-22.73L17.8,62.65A116.77,116.77,0,0,0,2.57,149Z"/><path class="cls-6" d="M46.09,223.12l80-96.84L2.24,147.17a116.84,116.84,0,0,0,43.85,76Z"/><path class="cls-4" d="M127.06,251.91l-.93-125.63L44.65,221.91a116.82,116.82,0,0,0,82.41,30Z"/><path class="cls-5" d="M207.6,221.92l-81.47-95.64-.94,125.63a116.78,116.78,0,0,0,82.41-30Z"/><path class="cls-6" d="M250,147.17,126.13,126.28l80,96.84a116.72,116.72,0,0,0,43.85-76Z"/><path class="cls-4" d="M234.46,62.65,126.13,126.28,249.69,149a116.86,116.86,0,0,0-15.23-86.37Z"/><path class="cls-5" d="M168.22,7.9,126.13,126.28l109.27-62A116.81,116.81,0,0,0,168.22,7.9Z"/><polygon class="cls-7" points="245.65 147.94 127.12 126.12 233.34 65.83 233.01 65.25 126.74 125.56 167.57 10.73 166.94 10.51 126.13 125.27 84.36 7.79 83.73 8.01 125.5 125.52 19.71 63.38 19.37 63.96 125.16 126.1 3.24 146.66 3.35 147.32 125.27 126.76 46.95 218.84 47.46 219.27 125.78 127.2 124.85 246.96 125.52 246.96 126.46 127.2 203.21 220.1 203.73 219.68 126.98 126.78 245.53 148.6 245.65 147.94"/><g class="cls-8"><ellipse class="cls-1" cx="126.13" cy="125.99" rx="120.38" ry="120.8"/><g class="cls-9"><ellipse class="cls-10" cx="126.13" cy="125.99" rx="120.38" ry="120.8"/></g></g><text class="cls-11" transform="matrix(0.99, -0.12, 0.12, 0.99, 180.63, 115.33)">CHÚC BẠN<tspan x="-13.97" y="7.01">M</tspan><tspan class="cls-12" x="-8.22" y="7.01">A</tspan><tspan x="-4.36" y="7.01">Y MẮN LẦN SAU</tspan></text><text class="cls-11" transform="translate(110.18 175.84) rotate(113.24)">CHÚC BẠN<tspan x="-13.97" y="7.01">M</tspan><tspan class="cls-12" x="-8.22" y="7.01">A</tspan><tspan x="-4.36" y="7.01">Y MẮN LẦN SAU</tspan></text><text class="cls-11" transform="translate(70.48 56.98) rotate(46.71)">CHÚC BẠN<tspan x="-13.96" y="7.01">M</tspan><tspan class="cls-13" x="-8.22" y="7.01">A</tspan><tspan x="-4.36" y="7.01">Y MẮN LẦN SAU</tspan></text><text class="cls-14" transform="translate(173.73 78.56) rotate(-50.27)">QUẠT</text><text class="cls-15" transform="translate(121.76 67.34) rotate(-90)">Xe máy điện<tspan class="cls-16"><tspan class="cls-17" x="-7.85" y="12.45">V</tspan><tspan x="2.18" y="12.45">infast</tspan></tspan></text><text class="cls-18" transform="matrix(0.85, 0.53, -0.53, 0.85, 181.13, 165.09)">BALO</text><text class="cls-19" transform="translate(45.83 176.92) rotate(-31.02)">TÚI XÁCH</text><text class="cls-20" transform="translate(148.14 170.59) rotate(75.07)">Phiếu mua hàng <tspan class="cls-21" x="30.15" y="0">WE4.0</tspan></text><text class="cls-22" transform="translate(136.95 176.5) rotate(75.07)">500K</text><text class="cls-20" transform="translate(30.21 104.74) rotate(7.17)">Phiếu mua hàng <tspan class="cls-21" x="30.15" y="0">WE4.0</tspan></text><text class="cls-22" transform="translate(31.43 117.33) rotate(7.17)">100K</text></g></g></g></svg>