<svg xmlns="http://www.w3.org/2000/svg" viewBox="0 0 252.26 251.99"><defs><style>.cls-1{fill:#ef0;}.cls-2{fill:#00acc2;}.cls-3{fill:#fb8b00;}.cls-4{fill:#df3b37;}.cls-5{fill:#474747;}.cls-6{isolation:isolate;}.cls-7{fill:#fff;}.cls-8{fill:#7f0506;}</style></defs><g id="Layer_2" data-name="Layer 2"><g id="Layer_1-2" data-name="Layer 1"><g id="Layer_2-2" data-name="Layer 2"><g id="Layer_1-2-2" data-name="Layer 1-2"><path class="cls-1" d="M82.28,8.54l43.85,117.74L170,8.54a116.82,116.82,0,0,0-87.7,0Z"/><path class="cls-2" d="M16.86,64.27l109.27,62L84,7.9A116.84,116.84,0,0,0,16.86,64.27Z"/><path class="cls-3" d="M2.57,149l123.56-22.73L17.8,62.65A116.79,116.79,0,0,0,2.57,149Z"/><path class="cls-4" d="M46.09,223.12l80-96.84L2.24,147.17a116.85,116.85,0,0,0,43.85,76Z"/><path class="cls-2" d="M127.06,251.91l-.93-125.63L44.65,221.91A116.76,116.76,0,0,0,127.06,251.91Z"/><path class="cls-3" d="M207.6,221.92l-81.47-95.64-.94,125.63a116.74,116.74,0,0,0,82.41-30Z"/><path class="cls-4" d="M250,147.17,126.13,126.28l80,96.84a116.64,116.64,0,0,0,43.85-76Z"/><path class="cls-2" d="M234.46,62.65,126.13,126.28,249.69,149a116.85,116.85,0,0,0-15.23-86.37Z"/><path class="cls-3" d="M168.22,7.9,126.13,126.28l109.27-62A116.84,116.84,0,0,0,168.22,7.9Z"/><polygon class="cls-5" points="245.65 147.94 127.12 126.12 233.34 65.83 233.01 65.25 126.74 125.56 167.57 10.73 166.94 10.51 126.13 125.27 84.36 7.79 83.73 8.01 125.5 125.52 19.71 63.38 19.37 63.96 125.16 126.1 3.24 146.66 3.35 147.32 125.27 126.76 46.95 218.84 47.46 219.27 125.78 127.2 124.85 246.96 125.52 246.96 126.46 127.2 203.21 220.1 203.73 219.68 126.98 126.78 245.53 148.6 245.65 147.94"/><g class="cls-6"><g class="cls-6"><path class="cls-7" d="M183.77,112a1.25,1.25,0,0,0-1.05-.36,1.16,1.16,0,0,0-1,1.35,1.13,1.13,0,0,0,1.32,1,1.28,1.28,0,0,0,.93-.58l.16,1.36a3.44,3.44,0,0,1-1,.33,2.44,2.44,0,0,1-1.71-.45,2.14,2.14,0,0,1-.9-1.56,2.3,2.3,0,0,1,.45-1.68,2.35,2.35,0,0,1,1.57-.9,2.59,2.59,0,0,1,1.07.09Z"/><path class="cls-7" d="M187.27,111.81l-.21-1.68,1.14-.14.52,4.36-1.13.14-.22-1.79-1.63.2.21,1.79-1.13.14-.53-4.37,1.13-.13.21,1.68Z"/><path class="cls-7" d="M192.72,109.44l.29,2.46a1.94,1.94,0,0,1-.27,1.59,2.08,2.08,0,0,1-1.38.66,2.14,2.14,0,0,1-1.51-.31,2,2,0,0,1-.64-1.48l-.3-2.46,1.13-.13.28,2.29c.07.57.19,1.18.92,1.09s.69-.71.62-1.27l-.28-2.3Zm-1.73-.12-.41-.22.56-.88.56.31Z"/><path class="cls-7" d="M196.73,110.44a1.26,1.26,0,0,0-1.06-.36,1.16,1.16,0,0,0-1,1.35,1.13,1.13,0,0,0,1.32,1,1.27,1.27,0,0,0,.92-.58l.17,1.36a3.54,3.54,0,0,1-1,.33,2.43,2.43,0,0,1-1.71-.45,2.08,2.08,0,0,1-.9-1.56,2.29,2.29,0,0,1,.44-1.68,2.39,2.39,0,0,1,1.58-.9,2.54,2.54,0,0,1,1.06.09Z"/><path class="cls-7" d="M199.76,113l-.53-4.36,1.62-.19c.78-.1,1.33.14,1.43,1a.9.9,0,0,1-.37.95h0a1,1,0,0,1,1,1c.11.91-.64,1.31-1.43,1.4Zm.81-2.78.13,0c.3,0,.61-.12.56-.5s-.4-.38-.71-.34h-.08Zm.22,1.78.14,0c.34,0,.91-.09.85-.57s-.62-.41-1-.36h-.12Z"/><path class="cls-7" d="M204.69,111.65l-.21.79-1.2.15,1.15-4.57,1.24-.15,2.17,4.17-1.21.14-.38-.72Zm.52-2.36h0l-.3,1.44.94-.11Zm.94,3.81a.47.47,0,0,1-.41.53.5.5,0,0,1-.54-.42.48.48,0,1,1,1-.11Z"/><path class="cls-7" d="M207.66,107.63l1.13-.14,2.4,2.42h0l-.33-2.67,1.14-.14.53,4.36-1.14.14-2.4-2.42h0l.32,2.68-1.13.13Z"/></g><g class="cls-6"><path class="cls-7" d="M168,119.48l1.11-.13,1.17,2.22.66-2.44L172,119l1.19,4.28-1.13.14-.62-2.47h0l-.74,2.64-.45,0L169,121.24h0l-.06,2.56-1.13.14Z"/></g><g class="cls-6"><path class="cls-7" d="M174.73,122.32l-.21.8-1.21.14,1.15-4.56,1.24-.15,2.17,4.16-1.21.15-.37-.73Zm.52-2.35h0l-.3,1.45.95-.12Z"/></g><g class="cls-6"><path class="cls-7" d="M176.52,118.45l1.36-.17,1,1.09.67-1.29,1.36-.16-1.33,2.46.25,2.1-1.13.13-.26-2.09Z"/><path class="cls-7" d="M183.59,117.59l1.12-.14,1.17,2.23.65-2.45,1.13-.13,1.19,4.28-1.14.14-.62-2.48h0l-.74,2.63-.46.06-1.3-2.39h0l-.06,2.56-1.13.13Z"/><path class="cls-7" d="M190.34,120.43l-.21.79-1.2.15,1.15-4.57,1.24-.15,2.17,4.17-1.21.14-.38-.72Zm-.18-4.76a.38.38,0,0,0,.42.27.37.37,0,0,0,.35-.36l.51-.06a.91.91,0,0,1-1.79.21Zm.6-.16-.41-.23.55-.87.56.31Zm.1,2.57h0l-.3,1.44.94-.11Z"/><path class="cls-7" d="M193.31,116.41l1.13-.14,2.4,2.42h0l-.32-2.67,1.14-.14.52,4.37-1.13.13-2.4-2.42h0l.32,2.68-1.13.13Z"/><path class="cls-7" d="M201.93,118.82l1.36-.17.12,1-2.5.31-.52-4.37,1.13-.13Z"/><path class="cls-7" d="M204.8,118.68l-.21.79-1.21.15,1.15-4.57,1.24-.15,2.17,4.16-1.21.15-.37-.72Zm.15-5.17,1.12.63-.31.43-.73-.43-.61.6-.38-.35Zm.36,2.81h0l-.3,1.44.95-.11Zm.22-3.63.75.72-.34.31-.88-.6Z"/><path class="cls-7" d="M207.76,114.66l1.14-.14,2.4,2.42h0l-.32-2.67,1.13-.14.53,4.36-1.14.14-2.4-2.42h0l.33,2.67-1.14.14Z"/><path class="cls-7" d="M217.37,114.63a1.21,1.21,0,0,0-.79-.19c-.2,0-.47.18-.44.42s.35.31.56.35l.3.06c.62.1,1.13.35,1.22,1.06a1.51,1.51,0,0,1-.31,1.23,2,2,0,0,1-1.19.56,2.73,2.73,0,0,1-1.59-.31l.37-1a1.51,1.51,0,0,0,1.06.33c.27,0,.54-.2.5-.5s-.5-.38-.75-.42c-.74-.11-1.23-.24-1.33-1.09a1.42,1.42,0,0,1,1.33-1.64,3,3,0,0,1,1.41.19Z"/><path class="cls-7" d="M220,116.84l-.21.79-1.2.15,1.15-4.57,1.23-.15,2.18,4.17-1.21.14-.38-.72Zm.52-2.35h0l-.3,1.44.94-.11Z"/><path class="cls-7" d="M226.7,112.36l.3,2.46a2,2,0,0,1-.27,1.59,2.43,2.43,0,0,1-2.9.35,2,2,0,0,1-.64-1.48l-.3-2.45,1.14-.14.28,2.29c.06.57.18,1.19.91,1.1s.69-.71.62-1.28l-.27-2.3Z"/></g></g><g class="cls-6"><g class="cls-6"><path class="cls-7" d="M111.48,180.24a1.28,1.28,0,0,0,.85-.74,1.17,1.17,0,0,0-.66-1.56,1.16,1.16,0,0,0-1.58.63,1.38,1.38,0,0,0,0,1.09l-1.26-.54a3.41,3.41,0,0,1,.21-1,2.5,2.5,0,0,1,1.25-1.27,2.16,2.16,0,0,1,1.81,0,2.28,2.28,0,0,1,1.23,1.23,2.42,2.42,0,0,1,0,1.83,2.62,2.62,0,0,1-.62.87Z"/><path class="cls-7" d="M109.9,183.37l1.56.67-.45,1.05L107,183.35l.45-1,1.66.71.65-1.52-1.66-.71.45-1.05,4,1.74-.45,1.05-1.56-.67Z"/><path class="cls-7" d="M109.2,189.29l-2.27-1a2,2,0,0,1-1.25-1,2,2,0,0,1,.13-1.53,2.07,2.07,0,0,1,1-1.15,1.94,1.94,0,0,1,1.61.19l2.28,1-.45,1.06-2.13-.92c-.53-.22-1.12-.43-1.41.24s.27,1,.79,1.19l2.14.92Zm1-1.44.4-.24.48.92-.55.33Z"/><path class="cls-7" d="M106.32,192.26a1.23,1.23,0,0,0,.84-.73,1.16,1.16,0,0,0-.66-1.56,1.14,1.14,0,0,0-1.57.62,1.3,1.3,0,0,0,0,1.09l-1.26-.54a3.24,3.24,0,0,1,.21-1,2.44,2.44,0,0,1,1.25-1.26,2.12,2.12,0,0,1,1.81,0,2.26,2.26,0,0,1,1.22,1.23,2.39,2.39,0,0,1,0,1.82,2.71,2.71,0,0,1-.62.87Z"/><path class="cls-7" d="M102.56,193.59l4,1.74-.65,1.51c-.31.72-.79,1.08-1.57.75a.91.91,0,0,1-.63-.8h0a1,1,0,0,1-1.39.39c-.85-.37-.81-1.21-.5-1.95Zm.35,1.4,0,.14c-.14.31-.38.83.06,1s.67-.33.82-.68l0-.1Zm1.66.71,0,.12c-.12.28-.2.59.14.74s.54-.16.66-.45l0-.07Z"/><path class="cls-7" d="M99.27,199.1a.48.48,0,0,1-.25-.63.47.47,0,0,1,.63-.25.48.48,0,0,1,.25.63A.49.49,0,0,1,99.27,199.1Zm2-.54-.58-.58.48-1.12,3.38,3.3-.5,1.15-4.7-.22.48-1.12.82,0ZM103,200.2v0l-1.1-1-.37.87Z"/><path class="cls-7" d="M103.25,203.16l-.45,1.05-3.31.86h0l2.47,1.07-.45,1-4.05-1.74.46-1.05,3.3-.86h0l-2.48-1.07.45-1.05Z"/></g><g class="cls-6"><path class="cls-7" d="M113,162.77l-.44,1-2.52-.1,1.79,1.8-.45,1L107,165.42l.45-1.06,2.46.71h0l-1.92-2,.18-.42,2.73.07h0l-2.19-1.34.45-1Z"/></g><g class="cls-6"><path class="cls-7" d="M107.1,167.2l-.59-.58.48-1.12,3.38,3.3-.49,1.15-4.7-.22.48-1.12.82,0Zm1.78,1.64h0l-1.1-1-.38.87Z"/></g><g class="cls-6"><path class="cls-7" d="M109.55,170.71,109,172l-1.42.28.77,1.23-.54,1.27-1.46-2.4-2-.84.45-1,2,.84Z"/><path class="cls-7" d="M106.74,177.27l-.45,1-2.52-.11,1.79,1.8-.45,1.05-4.31-1.13.46-1,2.45.7h0l-1.92-2,.18-.42,2.73.07h0l-2.19-1.34.45-1Z"/><path class="cls-7" d="M100.87,181.69l-.58-.58.48-1.11,3.38,3.29-.49,1.15L99,184.23l.48-1.13.82,0Zm1.78,1.64h0l-1.1-1-.38.88Zm2.44.61a.35.35,0,0,0-.44.23.37.37,0,0,0,.13.48l-.2.47a.91.91,0,0,1,.71-1.66Zm-.16.59.4-.24.48.92-.55.33Z"/><path class="cls-7" d="M102.86,186.29l-.45,1.05-3.3.87h0l2.48,1.06-.45,1.05-4-1.74.45-1.05,3.31-.86h0l-2.48-1.07.45-1Z"/><path class="cls-7" d="M96.43,192.56l-.54,1.26-.89-.39,1-2.31,4.05,1.74-.45,1Z"/><path class="cls-7" d="M95.11,195.11l-.58-.58.48-1.12,3.38,3.3-.49,1.15-4.71-.22.48-1.12.82,0Zm1.78,1.63h0l-1.1-1-.38.87Zm2.63,1.11-1.12.64-.21-.48.74-.42-.21-.82.49-.16Zm.42.91-1,.29-.1-.46,1-.45Z"/><path class="cls-7" d="M97.1,199.71l-.45,1-3.3.86h0l2.48,1.07-.45,1.05L91.32,202l.45-1,3.31-.86v0L92.6,199l.45-1.05Z"/><path class="cls-7" d="M92.28,208.05a1.19,1.19,0,0,0,.57-.58.45.45,0,0,0-.14-.6c-.24-.1-.45.14-.59.3l-.19.24a1.24,1.24,0,0,1-1.54.52,1.51,1.51,0,0,1-.91-.89,2,2,0,0,1,.11-1.31,2.74,2.74,0,0,1,1.08-1.23l.65.82a1.52,1.52,0,0,0-.82.76.48.48,0,0,0,.19.68c.29.13.57-.24.73-.44.48-.58.84-.94,1.62-.61a1.43,1.43,0,0,1,.76,2,3,3,0,0,1-.88,1.13Z"/><path class="cls-7" d="M89.07,209.17l-.58-.58.48-1.11,3.38,3.29-.49,1.15-4.71-.21.48-1.13.82,0Zm1.78,1.64h0l-1.1-1-.38.87Z"/><path class="cls-7" d="M89.55,217.28l-2.27-1a2,2,0,0,1-1.25-1,2.07,2.07,0,0,1,.13-1.54,2.14,2.14,0,0,1,1-1.15,2,2,0,0,1,1.62.19l2.27,1-.45,1.05-2.13-.91c-.53-.23-1.12-.44-1.41.24s.27,1,.79,1.18l2.14.92Z"/></g></g><g class="cls-6"><g class="cls-6"><path class="cls-7" d="M75,57.54a1.25,1.25,0,0,0-.33-1.06,1.16,1.16,0,0,0-1.7,0,1.14,1.14,0,0,0,0,1.69,1.31,1.31,0,0,0,1,.4l-1,.94a3.53,3.53,0,0,1-.84-.6,2.44,2.44,0,0,1-.66-1.65,2.15,2.15,0,0,1,.73-1.65A2.27,2.27,0,0,1,73.81,55a2.33,2.33,0,0,1,1.66.74,2.52,2.52,0,0,1,.56.91Z"/><path class="cls-7" d="M77.27,60.24l1.24-1.16.79.83-3.21,3-.79-.83,1.32-1.24-1.14-1.2-1.31,1.23-.79-.83,3.21-3,.79.83L76.14,59Z"/><path class="cls-7" d="M82.43,63.23l-1.81,1.7a2,2,0,0,1-1.45.73,2.42,2.42,0,0,1-2-2.12A2,2,0,0,1,78,62.13l1.8-1.69.78.83-1.68,1.59c-.42.39-.85.85-.34,1.39s1,.13,1.4-.26l1.69-1.59Zm-.94-1.46-.06-.47,1-.07.09.64Z"/><path class="cls-7" d="M84,67.07A1.25,1.25,0,0,0,83.67,66,1.17,1.17,0,0,0,82,66a1.14,1.14,0,0,0,0,1.68,1.3,1.3,0,0,0,1,.4l-1,.94a2.93,2.93,0,0,1-.84-.59,2.42,2.42,0,0,1-.67-1.65,2.17,2.17,0,0,1,.73-1.66,2.33,2.33,0,0,1,1.62-.63,2.4,2.4,0,0,1,1.67.73,2.69,2.69,0,0,1,.55.92Z"/><path class="cls-7" d="M83.73,71l3.21-3,1.12,1.19c.54.58.68,1.17.06,1.74a.9.9,0,0,1-1,.27h0a1,1,0,0,1-.2,1.43c-.67.63-1.44.27-2-.32Zm1.42.24.1.1c.24.25.62.68,1,.35s0-.74-.3-1l-.08-.08ZM86.46,70l.09.1c.21.22.47.41.74.15s.06-.55-.15-.77l0-.06Z"/><path class="cls-7" d="M87.77,74.21l-.77.31-.83-.89,4.37-1.78.86.91L89.33,77l-.84-.89.36-.74Zm-.3,2.05a.48.48,0,1,1,0-.68A.49.49,0,0,1,87.47,76.26Zm2.51-3h0l-1.35.61.66.7Z"/><path class="cls-7" d="M92.78,74.22l.78.83L93,78.43h0l2-1.85.78.83-3.2,3-.79-.84.53-3.38h0l-2,1.86-.78-.84Z"/></g><g class="cls-6"><path class="cls-7" d="M59.6,49.23l.78.82-1.1,2.27,2.36-.93.78.83-2.75,3.51-.78-.83,1.62-2h0l-2.57,1-.31-.33,1.15-2.47h0l-2.09,1.47-.79-.83Z"/></g><g class="cls-6"><path class="cls-7" d="M61.33,56.37l-.77.3-.83-.88L64.1,54l.85.91-2.06,4.23-.84-.89.36-.73Zm2.21-1h0L62.18,56l.66.69Z"/></g><g class="cls-6"><path class="cls-7" d="M65.52,55.51l.94,1-.3,1.43,1.43-.23,1,1-2.79.39-1.54,1.45-.78-.83L65,58.27Z"/><path class="cls-7" d="M70.42,60.71l.77.82-1.1,2.27,2.37-.93.78.83-2.75,3.51-.79-.83,1.63-2h0l-2.57,1L68.43,65l1.16-2.47h0L67.48,64l-.78-.83Z"/><path class="cls-7" d="M72.14,67.85l-.76.31-.84-.89,4.37-1.79.86.91L73.7,70.62l-.84-.89.36-.73Zm2.21-1h0L73,67.48l.65.69Zm1.53-2a.38.38,0,0,0,0,.5.37.37,0,0,0,.5.06l.35.38a.91.91,0,0,1-1.24-1.32Zm.48.38-.06-.46,1-.08.08.64Z"/><path class="cls-7" d="M77.15,67.86l.79.83-.53,3.38h0l2-1.85.79.83-3.21,3-.79-.83.53-3.38h0l-2,1.85-.79-.83Z"/><path class="cls-7" d="M80.34,76.25l.94,1-.71.67-1.73-1.84,3.21-3,.79.83Z"/><path class="cls-7" d="M82.15,78.48l-.76.3-.84-.88,4.37-1.79.86.91-2.07,4.23-.84-.89.37-.73Zm2.21-1h0L83,78.11l.65.69Zm2.06-2,.15,1.28H86L86,76l-.84-.14,0-.52Zm1,0-.14,1-.46-.08,0-1.07Z"/><path class="cls-7" d="M87.16,78.49l.79.83-.53,3.37h0l2-1.84.79.83-3.21,3-.78-.83.52-3.38h0l-2,1.85L84,81.51Z"/><path class="cls-7" d="M92.9,86.23a1.26,1.26,0,0,0-.31-.76c-.15-.15-.43-.27-.61-.1s0,.47,0,.66l.13.27A1.23,1.23,0,0,1,92,87.92a1.5,1.5,0,0,1-1.17.48,1.89,1.89,0,0,1-1.16-.63A2.73,2.73,0,0,1,89,86.3L90,86a1.6,1.6,0,0,0,.36,1,.5.5,0,0,0,.71.1c.23-.22,0-.63-.11-.85-.35-.67-.54-1.14.09-1.72a1.41,1.41,0,0,1,2.11.09A3,3,0,0,1,93.86,86Z"/><path class="cls-7" d="M92.65,89.62l-.77.3L91.05,89l4.37-1.79.86.91-2.07,4.23-.84-.89.36-.73Zm2.21-1h0l-1.35.62.66.69Z"/><path class="cls-7" d="M100.28,92.41l-1.81,1.7a2,2,0,0,1-1.44.73,2.12,2.12,0,0,1-1.36-.73,2.07,2.07,0,0,1-.65-1.4,2,2,0,0,1,.82-1.4l1.8-1.7.79.83L96.74,92c-.42.39-.85.84-.34,1.38s1,.14,1.4-.25l1.69-1.6Z"/></g></g><g class="cls-6"><path class="cls-7" d="M179.72,72.26h-1.14a4.67,4.67,0,0,1-1.16,2.33,4.91,4.91,0,1,1-7.54-6.27,4.81,4.81,0,0,1,7-.77,5,5,0,0,1,1.73,3l2.21-.18Zm-3.61-1.58a2.29,2.29,0,0,0-.77-1.19,2.63,2.63,0,0,0-3.67.31,2.58,2.58,0,0,0,.2,3.56,2.64,2.64,0,0,0,3.78-.25,2.38,2.38,0,0,0,.37-.64l-2.07.2,1.23-1.92Z"/><path class="cls-7" d="M179.18,57.61l4,3.31A4.16,4.16,0,0,1,185,63.74a5,5,0,0,1-3.9,4.69A4.19,4.19,0,0,1,178,67.1l-4-3.31L175.57,62,179.3,65c.92.77,2,1.54,3,.36s0-2.09-.88-2.85l-3.73-3.1Z"/><path class="cls-7" d="M187.49,59.5l.83,1.51-1.62,2-4.82-8.61,1.67-2,9.29,3.22-1.63,2L189.6,57Zm-2.59-4.33v0l1.62,2.64,1.27-1.53Zm6.9,4.44a1,1,0,0,1,.13,1.41,1,1,0,1,1-.13-1.41Z"/><path class="cls-7" d="M195.66,52.18,194.13,54l-5.52-4.59L187.35,51l-1.56-1.29,4.06-4.89,1.56,1.3-1.27,1.52Z"/></g><g class="cls-6"><g class="cls-6"><path class="cls-8" d="M115.12,81.39V79.62l1.43-.84-1.43-.84V76.17l2.57,1.77,3-2v1.73l-1.8,1.16,1.8,1.27v1.73l-3-2.16Z"/><path class="cls-8" d="M116.34,74h.92V72.42h1.22V74h1v-1.7h1.21v3.14h-5.52V72.34h1.22Z"/><path class="cls-8" d="M115.12,68.33V66.92l2.95-1.12-2.95-1.19V63.19l5.52-.84v1.44l-3.18.4h0l3.18,1.33v.57l-3.18,1.27h0l3.18.46v1.43Z"/></g><g class="cls-6"><path class="cls-8" d="M114.71,59.09l-.34.48-1-.83.46-.65Zm5,1.25,1,.38v1.52l-5.52-2.12V58.55l5.52-2.08V58l-1,.36Zm-2.85-1v0l1.75.59V58.75Z"/></g><g class="cls-6"><path class="cls-8" d="M115.12,57.51V55.79l1.5-1-1.5-1V52L118,54h2.65v1.44H118Z"/><path class="cls-8" d="M118.38,49.17v.61h-1.13v-.61h-2.13V47.31a2.77,2.77,0,1,1,5.52,0v1.88Zm-1.13-1.44v-.8h1.13v.8h1.05v-.32a1.55,1.55,0,1,0-3.09,0v.34Z"/><path class="cls-8" d="M120.64,42.23v1.43h-5.52V42.23Z"/><path class="cls-8" d="M113.26,39.76l1-1.3.49.46-.65.84.65.84-.49.43Zm3.08.1h.92V38.24h1.22v1.62h1V38.15h1.21v3.14h-5.52V38.15h1.22Zm5.37-.73a.6.6,0,1,1-.6.6A.6.6,0,0,1,121.71,39.13Z"/><path class="cls-8" d="M115.12,37.27V35.83l3.38-2.63h-3.38V31.75h5.52v1.44l-3.38,2.62v0h3.38v1.44Z"/></g><g class="cls-6"><path class="cls-8" d="M130.79,81.5,123,78.38V74.74l12.87,5.5v2.6L123,88.25V84.61Z"/></g><g class="cls-6"><path class="cls-8" d="M123.72,70.33A1.75,1.75,0,1,1,122,72.08,1.75,1.75,0,0,1,123.72,70.33Zm12.12.19v3.11h-8.76V70.52Z"/><path class="cls-8" d="M128.21,65.36v0a3,3,0,0,1-1.42-2.8c0-2.36,1.49-3.3,3.64-3.3h5.41v3.11h-4.27c-.83,0-2.3-.14-2.3,1.4,0,1.26.94,1.62,2,1.62h4.54v3.11h-8.76V65.36Z"/><path class="cls-8" d="M135.84,53.77v3.1h-6.2V58h-2.56v-1.1H126a3.92,3.92,0,0,1-4.47-3.94,2.77,2.77,0,0,1,.31-1.33h2.68a2.72,2.72,0,0,0-.29,1.09c0,.8.48,1.08,1.47,1.08h1.41V51.6h2.56v2.17Z"/><path class="cls-8" d="M135.84,41v3.1h-1v0a3.06,3.06,0,0,1,1.26,2.64,4.68,4.68,0,0,1-9.34,0,3.58,3.58,0,0,1,1.15-2.72h-.86V41Zm-4.37,7a2,2,0,0,0,0-4,2,2,0,0,0,0,4Z"/><path class="cls-8" d="M129.34,33.12a3.8,3.8,0,0,0-.43,1.67c0,.36.15,1,.6,1,.6,0,.68-1,.77-1.4.29-1.45,1-2.54,2.59-2.54,2.31,0,3.26,2.1,3.26,4.13a6.88,6.88,0,0,1-1,3.54L133,38.36a5,5,0,0,0,.88-2.46c0-.39-.18-1-.66-1-.68,0-.72,1-1,1.94a2.2,2.2,0,0,1-2.31,2c-2.15,0-3.11-2-3.11-3.86a6.92,6.92,0,0,1,.57-2.88Z"/><path class="cls-8" d="M135.84,26.75v3.1h-6.2v1h-2.56v-1h-2.63v-3.1h2.63V25h2.56v1.76Z"/></g></g><g class="cls-6"><path class="cls-7" d="M181.74,165.47l4.49-7.19,2.67,1.66c1.28.8,1.83,1.83,1,3.21a1.74,1.74,0,0,1-1.7,1l0,0a1.91,1.91,0,0,1,.33,2.75c-.94,1.51-2.54,1.2-3.85.38Zm2.77-.26.24.15c.55.34,1.47.95,2,.16s-.44-1.36-1.05-1.74l-.19-.12Zm1.83-2.94.21.13c.5.31,1.06.55,1.45-.07s-.15-1.05-.66-1.37l-.13-.08Z"/><path class="cls-7" d="M190.82,169.4l-1.28.94-2-1.24,7.25-5.47,2,1.27-1.77,8.89-2-1.25.31-1.54Zm3.63-2.91h0l-2.2,1.81,1.55,1Z"/><path class="cls-7" d="M198.52,173.73l2.24,1.4-1,1.59-4.11-2.57,4.49-7.19,1.87,1.16Z"/><path class="cls-7" d="M210.31,178.1a4.7,4.7,0,1,1-1.67-6.18A4.51,4.51,0,0,1,210.31,178.1Zm-6-3.74a2.4,2.4,0,1,0,4.07,2.54,2.4,2.4,0,0,0-4.07-2.54Z"/></g><g class="cls-6"><path class="cls-7" d="M49,175l-1.69,1-3-5.05-1.39.84L42,170.42l4.46-2.68.85,1.43-1.39.83Z"/><path class="cls-7" d="M52.68,164l2.18,3.64a3.44,3.44,0,0,1,.7,2.69,4.14,4.14,0,0,1-4.29,2.58A3.43,3.43,0,0,1,49.22,171L47,167.4l1.68-1,2,3.4c.5.84,1.12,1.72,2.2,1.07s.59-1.6.08-2.44L51,165Zm-2.8,1-.8-.07.26-1.77,1.09.09Z"/><path class="cls-7" d="M59.31,168.82l-1.68,1-3.89-6.47,1.68-1Z"/><path class="cls-7" d="M59.31,160l2.06-1.24,2,1.08,0-2.27,2.06-1.24-.25,4.25,4.47,2-2,1.22L65,162.54l-.21,3-2,1.22.45-5Z"/><path class="cls-7" d="M71.09,160.2l.23,1.4-1.78,1.07-1.41-8L70,153.6l6.33,5-1.8,1.08-1.09-.87Zm-2-6.7-.8-.06.25-1.77,1.1.09Zm1.2,2.65h0l.54,2.48,1.4-.84Z"/><path class="cls-7" d="M78.86,151.21a2.15,2.15,0,0,0-1.91.18,2,2,0,0,0-.64,2.83,2,2,0,0,0,2.8.7,2.25,2.25,0,0,0,1-1.55l1.21,2a5.61,5.61,0,0,1-1.3,1.2,4.19,4.19,0,0,1-3,.5,3.68,3.68,0,0,1-2.51-1.82,3.93,3.93,0,0,1-.47-2.94,4.1,4.1,0,0,1,1.83-2.53,4.61,4.61,0,0,1,1.74-.59Z"/><path class="cls-7" d="M84.2,148.44,82.7,146l1.68-1,3.89,6.46-1.68,1L85,149.76l-2.43,1.46,1.59,2.66-1.68,1-3.89-6.47,1.68-1,1.5,2.49Z"/></g><g class="cls-6"><g class="cls-6"><path class="cls-7" d="M145.35,156.19l.75,1.3a1.18,1.18,0,0,1-.39,1.81,1.16,1.16,0,0,1-1.78-.52l-.27-.48-1.09.62-.49-.85Zm-1,1.71.08.15c.18.31.36.61.75.38s.26-.52.07-.85l-.08-.14Z"/><path class="cls-7" d="M146.93,161.86l1.26-.72.49.85-3.27,1.88-.49-.85,1.34-.77-.7-1.23-1.34.77-.49-.85,3.27-1.88.49.85-1.26.72Z"/><path class="cls-7" d="M146.22,165.27l-.49-.85,3.27-1.88.49.85Z"/><path class="cls-7" d="M149.57,165.21l-.54.31.55,1-.72.42-.55-1-.57.32.58,1-.72.42-1.07-1.87,3.28-1.87,1.07,1.86-.72.41Zm1.86-1-.13,1.09-.44-.1.1-.72-.68-.28.15-.42Zm.16.85,0-.4.88.14,0,.55Z"/><path class="cls-7" d="M152.8,169.17,151,170.22a1.64,1.64,0,0,1-1.35.32,1.74,1.74,0,0,1-1-.87,1.8,1.8,0,0,1-.26-1.29,1.68,1.68,0,0,1,1-1l1.84-1.06.48.85-1.72,1c-.42.25-.87.54-.56,1.09s.8.31,1.22.07l1.73-1Z"/><path class="cls-7" d="M154.17,171.55l.48.84-1.36,1.67,2.15-.3.48.84-3,2.38-.49-.85,1.74-1.32h0l-2.34.29-.19-.34,1.45-1.83h0l-2,.81-.49-.84Z"/><path class="cls-7" d="M158,178.29l-1.84,1.06a1.73,1.73,0,0,1-1.35.32,1.81,1.81,0,0,1-1-.88,1.79,1.79,0,0,1-.26-1.29,1.71,1.71,0,0,1,1-1l1.84-1.05.49.85-1.72,1c-.43.24-.87.54-.56,1.08s.8.31,1.22.07l1.72-1Z"/><path class="cls-7" d="M156.12,181.21l-.69.1-.52-.9,4-.62.54.93-2.57,3.11-.52-.91.45-.54Zm2-.37h0l-1.24.24.41.71Z"/><path class="cls-7" d="M161.08,186.5l1.26-.72.49.85-3.27,1.88-.49-.85,1.34-.77-.7-1.23-1.35.77-.48-.85,3.27-1.88.49.85-1.27.73Z"/><path class="cls-7" d="M160.92,189.57l-.7.1-.52-.9,4-.62.53.93-2.56,3.11-.52-.91.44-.54Zm2-.38h0l-1.24.25.4.71Zm1.87-1.5-.32.84-.36-.17.18-.89Z"/><path class="cls-7" d="M165.09,190.57l.49.85-1.11,2.71h0l2-1.15.49.85-3.28,1.88-.48-.85,1.11-2.71h0l-2,1.15-.49-.85Z"/><path class="cls-7" d="M167.71,198.48a2.36,2.36,0,0,1-1.48.41,1.79,1.79,0,0,1-1.42-1,2,2,0,1,1,3.51-2,1.76,1.76,0,0,1-.07,2l-.8-.61a.86.86,0,0,0,.11-1,1.2,1.2,0,0,0-2.05,1.19.71.71,0,0,0,1,.36l-.4-.69.67-.39Z"/></g><g class="cls-6"><path class="cls-7" d="M169.08,201.94h0l2.95-.62.45.8-2,2.18h0l2.9-.7.59,1-4.54,1-.59-1,1.84-2h0l-2.66.53-.58-1,3.18-3.36.6,1Z"/><path class="cls-7" d="M173.8,206.39l-.64.36.65,1.13-.85.49-.64-1.13-.67.38.69,1.19-.85.48-1.26-2.18,3.85-2.21,1.25,2.19-.85.48Z"/><path class="cls-7" d="M175.13,212l-.77.44-.26-.46-.8.45-.53-.92.8-.46-1.07-1.86.63-.37,3.26.1.76,1.31-2.29,1.31Zm.68-2.24h0l-2,0,.52.9Z"/><path class="cls-7" d="M175,214.26a.69.69,0,0,1-.94-.25.7.7,0,0,1,.25-.94.69.69,0,1,1,.69,1.19Z"/><path class="cls-7" d="M178.52,217.09c-1,.58-2.35.71-3-.44s.14-2.24,1.14-2.82,2.35-.7,3,.44S179.52,216.52,178.52,217.09Zm-1.3-2.27c-.37.22-1.12.81-.83,1.33s1.19.16,1.57-.05,1.11-.81.82-1.32S177.6,214.61,177.22,214.82Z"/></g></g><g class="cls-6"><path class="cls-7" d="M142.87,173.2l-1.26.29.41.83a3.79,3.79,0,0,1-2.27,5.2,4,4,0,0,1-3.37-.22,5.35,5.35,0,0,1-2.08-2.71,6.7,6.7,0,0,1-.42-3.78l2.73-.62a4.77,4.77,0,0,0-.05,3.39,1.72,1.72,0,0,0,2.2,1c1.26-.5,1.31-1.92.88-3a5,5,0,0,0-1.22-1.82l6-1.34,2.16,5.43-2.3.92Z"/><path class="cls-7" d="M145.72,188.88c-2.72,1.08-6.16.93-7.41-2.19s1.16-5.6,3.88-6.68,6.18-.91,7.41,2.19S148.44,187.8,145.72,188.88Zm-2.44-6.17c-1,.4-3.12,1.63-2.57,3s2.94.84,3.95.43,3.1-1.61,2.54-3S144.29,182.31,143.28,182.71Z"/><path class="cls-7" d="M149.51,198.4c-2.72,1.08-6.17.93-7.41-2.19s1.16-5.6,3.88-6.68,6.17-.92,7.41,2.19S152.22,197.32,149.51,198.4Zm-2.44-6.18c-1,.41-3.13,1.63-2.57,3s2.93.84,3.95.44,3.09-1.62,2.54-3S148.08,191.82,147.07,192.22Z"/><path class="cls-7" d="M157.62,203.56l1.34,3.37-6.61-2.19-3.7,6.73-1.4-3.52,3.14-5.32v0l-4.54,1.81-1.08-2.72,10.46-4.16,1.08,2.72L152,202v0Z"/></g><g class="cls-6"><g class="cls-6"><path class="cls-7" d="M19.76,92l1.45.42a1.18,1.18,0,0,1,1,1.57,1.15,1.15,0,0,1-1.64.86L20,94.7l-.35,1.2-.94-.27Zm.47,1.94.16,0c.34.1.67.2.8-.24s-.18-.55-.55-.66l-.15,0Z"/><path class="cls-7" d="M24.84,95l.4-1.4,1,.27-1,3.62-.95-.27.43-1.48-1.36-.39-.43,1.48-.94-.27,1-3.63.94.28-.4,1.39Z"/><path class="cls-7" d="M26.7,97.92l-.94-.27,1-3.63.94.27Z"/><path class="cls-7" d="M29.07,95.54l-.17.6,1.06.31-.23.8-1.06-.31-.18.63,1.12.32-.23.8-2.07-.59,1-3.63,2.07.59-.23.8Zm.64-2,.67.88-.39.24-.43-.59-.68.27-.19-.41Zm.71.5-.25-.32.73-.51.34.44Z"/><path class="cls-7" d="M34.14,96.13l-.58,2a1.7,1.7,0,0,1-.75,1.17,2.06,2.06,0,0,1-2.4-.69,1.72,1.72,0,0,1,0-1.39l.59-2,.94.27-.55,1.91c-.13.47-.24,1,.36,1.17s.79-.33.92-.8l.55-1.91Z"/><path class="cls-7" d="M36.79,96.89l.92.26.18,2.15,1.34-1.71.94.27-.49,3.78-1-.27.34-2.16h0L37.59,101l-.38-.11L37,98.61h0l-.9,2-.94-.27Z"/><path class="cls-7" d="M44.26,99l-.59,2a1.69,1.69,0,0,1-.75,1.17,1.79,1.79,0,0,1-1.31.06,1.81,1.81,0,0,1-1.09-.75,1.68,1.68,0,0,1,0-1.39l.58-2,.94.27-.54,1.91c-.14.47-.25,1,.35,1.17s.79-.33.93-.8l.54-1.91Z"/><path class="cls-7" d="M44.91,102.46l-.43.56-1-.29,2.44-3.23,1,.3.32,4-1-.29-.06-.7Zm1.2-1.69h0l-.72,1,.79.23Z"/><path class="cls-7" d="M52.16,102.81l.4-1.4.94.27-1,3.63-.94-.28.42-1.48-1.36-.39-.43,1.48-.94-.27,1-3.62,1,.27-.41,1.4Z"/><path class="cls-7" d="M54.17,105.12l-.43.55-1-.28,2.44-3.23,1,.29.33,4-1-.28-.06-.7Zm1.2-1.69h0l-.72,1,.79.22Zm.3-2.38.36.82-.38.13-.49-.77Z"/><path class="cls-7" d="M57.87,102.93l.94.27,1.09,2.71h0l.64-2.22.94.27-1,3.63-.94-.27-1.09-2.72h0l-.64,2.22-.94-.27Z"/><path class="cls-7" d="M65.26,106.78a2.42,2.42,0,0,1-.78,1.33,1.82,1.82,0,0,1-1.7.28,1.9,1.9,0,0,1-1.39-2.46,1.93,1.93,0,0,1,2.53-1.39A1.73,1.73,0,0,1,65.26,106l-1,.12a.86.86,0,0,0-.62-.8,1.2,1.2,0,0,0-.64,2.28.7.7,0,0,0,.94-.41l-.77-.22.22-.74Z"/></g><g class="cls-6"><path class="cls-7" d="M69.05,108.38h0l1.73-2.57.91.26,0,3.08h0l1.63-2.59,1.19.34-2.66,4-1.16-.34,0-2.76h0l-1.59,2.29L68,109.75,67.91,105l1.19.34Z"/><path class="cls-7" d="M75.72,108.28l-.21.73,1.28.37-.27,1L75.23,110l-.21.76,1.35.39-.28,1-2.49-.71L74.86,107l2.49.71-.28,1Z"/><path class="cls-7" d="M80.74,111.49l-.25.87-.53-.15-.26.91-1.06-.31.26-.9-2.12-.61.21-.73,2.47-2.26,1.5.43-.75,2.6Zm-1.11-2.14h0l-1.5,1.39,1,.3Z"/><path class="cls-7" d="M82.25,113.24a.71.71,0,0,1-.88.48.71.71,0,0,1,.39-1.36A.72.72,0,0,1,82.25,113.24Z"/><path class="cls-7" d="M86.88,112.8c-.33,1.14-1.23,2.21-2.54,1.84s-1.51-1.76-1.18-2.9,1.24-2.21,2.54-1.83S87.2,111.67,86.88,112.8Zm-2.59-.74c-.12.42-.25,1.4.34,1.57s1-.73,1.12-1.16.25-1.39-.34-1.56S84.42,111.63,84.29,112.06Z"/></g></g><g class="cls-6"><path class="cls-7" d="M30.53,107.85l.6-2.72,5,1.1-2.73,12.34-3.21-.71,2.13-9.62Z"/><path class="cls-7" d="M49.2,115.6c-.71,3.21-3,6.32-6.71,5.5s-4.47-4.61-3.76-7.81,3.05-6.31,6.71-5.5S49.91,112.4,49.2,115.6ZM41.92,114c-.26,1.19-.45,3.93,1.2,4.29s2.63-2.19,2.89-3.39.46-3.9-1.2-4.26S42.19,112.78,41.92,114Z"/><path class="cls-7" d="M60.42,118.09c-.71,3.21-3,6.32-6.7,5.5S49.25,119,50,115.77s3-6.31,6.7-5.49S61.13,114.88,60.42,118.09Zm-7.27-1.63c-.27,1.2-.46,3.93,1.19,4.3s2.63-2.2,2.9-3.39.45-3.9-1.2-4.27S53.41,115.27,53.15,116.46Z"/><path class="cls-7" d="M70.33,113.82l4,.88-6.2,4.75L72,127.13l-4.16-.92-3-6.27h0l-1.19,5.34-3.2-.71,2.73-12.33,3.2.71L65.3,118h0Z"/></g></g></g></g></g></svg>