<svg xmlns="http://www.w3.org/2000/svg" viewBox="0 0 252.26 251.99"><defs><style>.cls-1{fill:#ef0;}.cls-2{fill:#00acc2;}.cls-3{fill:#fb8b00;}.cls-4{fill:#df3b37;}.cls-5{fill:#474747;}.cls-6{isolation:isolate;}.cls-7{fill:#fff;}.cls-8{fill:#7f0506;}</style></defs><g id="Layer_2" data-name="Layer 2"><g id="Layer_1-2" data-name="Layer 1"><g id="Layer_2-2" data-name="Layer 2"><g id="Layer_1-2-2" data-name="Layer 1-2"><path class="cls-1" d="M82.28,8.54l43.85,117.74L170,8.54a116.82,116.82,0,0,0-87.7,0Z"/><path class="cls-2" d="M16.86,64.27l109.27,62L84,7.9A116.84,116.84,0,0,0,16.86,64.27Z"/><path class="cls-3" d="M2.57,149l123.56-22.73L17.8,62.65A116.79,116.79,0,0,0,2.57,149Z"/><path class="cls-4" d="M46.09,223.12l80-96.84L2.24,147.17a116.85,116.85,0,0,0,43.85,76Z"/><path class="cls-2" d="M127.06,251.91l-.93-125.63L44.65,221.91A116.76,116.76,0,0,0,127.06,251.91Z"/><path class="cls-3" d="M207.6,221.92l-81.47-95.64-.94,125.63a116.74,116.74,0,0,0,82.41-30Z"/><path class="cls-4" d="M250,147.17,126.13,126.28l80,96.84a116.64,116.64,0,0,0,43.85-76Z"/><path class="cls-2" d="M234.46,62.65,126.13,126.28,249.69,149a116.85,116.85,0,0,0-15.23-86.37Z"/><path class="cls-3" d="M168.22,7.9,126.13,126.28l109.27-62A116.84,116.84,0,0,0,168.22,7.9Z"/><polygon class="cls-5" points="245.65 147.94 127.12 126.12 233.34 65.83 233.01 65.25 126.74 125.56 167.57 10.73 166.94 10.51 126.13 125.27 84.36 7.79 83.73 8.01 125.5 125.52 19.71 63.38 19.37 63.96 125.16 126.1 3.24 146.66 3.35 147.32 125.27 126.76 46.95 218.84 47.46 219.27 125.78 127.2 124.85 246.96 125.52 246.96 126.46 127.2 203.21 220.1 203.73 219.68 126.98 126.78 245.53 148.6 245.65 147.94"/><g class="cls-6"><g class="cls-6"><path class="cls-7" d="M183.77,112a1.25,1.25,0,0,0-1.05-.36,1.16,1.16,0,0,0-1,1.35,1.13,1.13,0,0,0,1.32,1,1.28,1.28,0,0,0,.93-.58l.16,1.36a3.44,3.44,0,0,1-1,.33,2.44,2.44,0,0,1-1.71-.45,2.14,2.14,0,0,1-.9-1.56,2.3,2.3,0,0,1,.45-1.68,2.35,2.35,0,0,1,1.57-.9,2.59,2.59,0,0,1,1.07.09Z"/><path class="cls-7" d="M187.27,111.81l-.21-1.68,1.14-.14.52,4.36-1.13.14-.22-1.79-1.63.2.21,1.79-1.13.14-.53-4.37,1.13-.13.21,1.68Z"/><path class="cls-7" d="M192.72,109.44l.29,2.46a1.94,1.94,0,0,1-.27,1.59,2.08,2.08,0,0,1-1.38.66,2.14,2.14,0,0,1-1.51-.31,2,2,0,0,1-.64-1.48l-.3-2.46,1.13-.13.28,2.29c.07.57.19,1.18.92,1.09s.69-.71.62-1.27l-.28-2.3Zm-1.73-.12-.41-.22.56-.88.56.31Z"/><path class="cls-7" d="M196.73,110.44a1.26,1.26,0,0,0-1.06-.36,1.16,1.16,0,0,0-1,1.35,1.13,1.13,0,0,0,1.32,1,1.27,1.27,0,0,0,.92-.58l.17,1.36a3.54,3.54,0,0,1-1,.33,2.43,2.43,0,0,1-1.71-.45,2.08,2.08,0,0,1-.9-1.56,2.29,2.29,0,0,1,.44-1.68,2.39,2.39,0,0,1,1.58-.9,2.54,2.54,0,0,1,1.06.09Z"/><path class="cls-7" d="M199.76,113l-.53-4.36,1.62-.19c.78-.1,1.33.14,1.43,1a.9.9,0,0,1-.37.95h0a1,1,0,0,1,1,1c.11.91-.64,1.31-1.43,1.4Zm.81-2.78.13,0c.3,0,.61-.12.56-.5s-.4-.38-.71-.34h-.08Zm.22,1.78.14,0c.34,0,.91-.09.85-.57s-.62-.41-1-.36h-.12Z"/><path class="cls-7" d="M204.69,111.65l-.21.79-1.2.15,1.15-4.57,1.24-.15,2.17,4.17-1.21.14-.38-.72Zm.52-2.36h0l-.3,1.44.94-.11Zm.94,3.81a.47.47,0,0,1-.41.53.5.5,0,0,1-.54-.42.48.48,0,1,1,1-.11Z"/><path class="cls-7" d="M207.66,107.63l1.13-.14,2.4,2.42h0l-.33-2.67,1.14-.14.53,4.36-1.14.14-2.4-2.42h0l.32,2.68-1.13.13Z"/></g><g class="cls-6"><path class="cls-7" d="M168,119.48l1.11-.13,1.17,2.22.66-2.44L172,119l1.19,4.28-1.13.14-.62-2.47h0l-.74,2.64-.45,0L169,121.24h0l-.06,2.56-1.13.14Z"/></g><g class="cls-6"><path class="cls-7" d="M174.73,122.32l-.21.8-1.21.14,1.15-4.56,1.24-.15,2.17,4.16-1.21.15-.37-.73Zm.52-2.35h0l-.3,1.45.95-.12Z"/></g><g class="cls-6"><path class="cls-7" d="M176.52,118.45l1.36-.17,1,1.09.67-1.29,1.36-.16-1.33,2.46.25,2.1-1.13.13-.26-2.09Z"/><path class="cls-7" d="M183.59,117.59l1.12-.14,1.17,2.23.65-2.45,1.13-.13,1.19,4.28-1.14.14-.62-2.48h0l-.74,2.63-.46.06-1.3-2.39h0l-.06,2.56-1.13.13Z"/><path class="cls-7" d="M190.34,120.43l-.21.79-1.2.15,1.15-4.57,1.24-.15,2.17,4.17-1.21.14-.38-.72Zm-.18-4.76a.38.38,0,0,0,.42.27.37.37,0,0,0,.35-.36l.51-.06a.91.91,0,0,1-1.79.21Zm.6-.16-.41-.23.55-.87.56.31Zm.1,2.57h0l-.3,1.44.94-.11Z"/><path class="cls-7" d="M193.31,116.41l1.13-.14,2.4,2.42h0l-.32-2.67,1.14-.14.52,4.37-1.13.13-2.4-2.42h0l.32,2.68-1.13.13Z"/><path class="cls-7" d="M201.93,118.82l1.36-.17.12,1-2.5.31-.52-4.37,1.13-.13Z"/><path class="cls-7" d="M204.8,118.68l-.21.79-1.21.15,1.15-4.57,1.24-.15,2.17,4.16-1.21.15-.37-.72Zm.15-5.17,1.12.63-.31.43-.73-.43-.61.6-.38-.35Zm.36,2.81h0l-.3,1.44.95-.11Zm.22-3.63.75.72-.34.31-.88-.6Z"/><path class="cls-7" d="M207.76,114.66l1.14-.14,2.4,2.42h0l-.32-2.67,1.13-.14.53,4.36-1.14.14-2.4-2.42h0l.33,2.67-1.14.14Z"/><path class="cls-7" d="M217.37,114.63a1.21,1.21,0,0,0-.79-.19c-.2,0-.47.18-.44.42s.35.31.56.35l.3.06c.62.1,1.13.35,1.22,1.06a1.51,1.51,0,0,1-.31,1.23,2,2,0,0,1-1.19.56,2.73,2.73,0,0,1-1.59-.31l.37-1a1.51,1.51,0,0,0,1.06.33c.27,0,.54-.2.5-.5s-.5-.38-.75-.42c-.74-.11-1.23-.24-1.33-1.09a1.42,1.42,0,0,1,1.33-1.64,3,3,0,0,1,1.41.19Z"/><path class="cls-7" d="M220,116.84l-.21.79-1.2.15,1.15-4.57,1.23-.15,2.18,4.17-1.21.14-.38-.72Zm.52-2.35h0l-.3,1.44.94-.11Z"/><path class="cls-7" d="M226.7,112.36l.3,2.46a2,2,0,0,1-.27,1.59,2.43,2.43,0,0,1-2.9.35,2,2,0,0,1-.64-1.48l-.3-2.45,1.14-.14.28,2.29c.06.57.18,1.19.91,1.1s.69-.71.62-1.28l-.27-2.3Z"/></g></g><g class="cls-6"><g class="cls-6"><path class="cls-7" d="M111.48,180.24a1.28,1.28,0,0,0,.85-.74,1.17,1.17,0,0,0-.66-1.56,1.16,1.16,0,0,0-1.58.63,1.38,1.38,0,0,0,0,1.09l-1.26-.54a3.41,3.41,0,0,1,.21-1,2.5,2.5,0,0,1,1.25-1.27,2.16,2.16,0,0,1,1.81,0,2.28,2.28,0,0,1,1.23,1.23,2.42,2.42,0,0,1,0,1.83,2.62,2.62,0,0,1-.62.87Z"/><path class="cls-7" d="M109.9,183.37l1.56.67-.45,1.05L107,183.35l.45-1,1.66.71.65-1.52-1.66-.71.45-1.05,4,1.74-.45,1.05-1.56-.67Z"/><path class="cls-7" d="M109.2,189.29l-2.27-1a2,2,0,0,1-1.25-1,2,2,0,0,1,.13-1.53,2.07,2.07,0,0,1,1-1.15,1.94,1.94,0,0,1,1.61.19l2.28,1-.45,1.06-2.13-.92c-.53-.22-1.12-.43-1.41.24s.27,1,.79,1.19l2.14.92Zm1-1.44.4-.24.48.92-.55.33Z"/><path class="cls-7" d="M106.32,192.26a1.23,1.23,0,0,0,.84-.73,1.16,1.16,0,0,0-.66-1.56,1.14,1.14,0,0,0-1.57.62,1.3,1.3,0,0,0,0,1.09l-1.26-.54a3.24,3.24,0,0,1,.21-1,2.44,2.44,0,0,1,1.25-1.26,2.12,2.12,0,0,1,1.81,0,2.26,2.26,0,0,1,1.22,1.23,2.39,2.39,0,0,1,0,1.82,2.71,2.71,0,0,1-.62.87Z"/><path class="cls-7" d="M102.56,193.59l4,1.74-.65,1.51c-.31.72-.79,1.08-1.57.75a.91.91,0,0,1-.63-.8h0a1,1,0,0,1-1.39.39c-.85-.37-.81-1.21-.5-1.95Zm.35,1.4,0,.14c-.14.31-.38.83.06,1s.67-.33.82-.68l0-.1Zm1.66.71,0,.12c-.12.28-.2.59.14.74s.54-.16.66-.45l0-.07Z"/><path class="cls-7" d="M99.27,199.1a.48.48,0,0,1-.25-.63.47.47,0,0,1,.63-.25.48.48,0,0,1,.25.63A.49.49,0,0,1,99.27,199.1Zm2-.54-.58-.58.48-1.12,3.38,3.3-.5,1.15-4.7-.22.48-1.12.82,0ZM103,200.2v0l-1.1-1-.37.87Z"/><path class="cls-7" d="M103.25,203.16l-.45,1.05-3.31.86h0l2.47,1.07-.45,1-4.05-1.74.46-1.05,3.3-.86h0l-2.48-1.07.45-1.05Z"/></g><g class="cls-6"><path class="cls-7" d="M113,162.77l-.44,1-2.52-.1,1.79,1.8-.45,1L107,165.42l.45-1.06,2.46.71h0l-1.92-2,.18-.42,2.73.07h0l-2.19-1.34.45-1Z"/></g><g class="cls-6"><path class="cls-7" d="M107.1,167.2l-.59-.58.48-1.12,3.38,3.3-.49,1.15-4.7-.22.48-1.12.82,0Zm1.78,1.64h0l-1.1-1-.38.87Z"/></g><g class="cls-6"><path class="cls-7" d="M109.55,170.71,109,172l-1.42.28.77,1.23-.54,1.27-1.46-2.4-2-.84.45-1,2,.84Z"/><path class="cls-7" d="M106.74,177.27l-.45,1-2.52-.11,1.79,1.8-.45,1.05-4.31-1.13.46-1,2.45.7h0l-1.92-2,.18-.42,2.73.07h0l-2.19-1.34.45-1Z"/><path class="cls-7" d="M100.87,181.69l-.58-.58.48-1.11,3.38,3.29-.49,1.15L99,184.23l.48-1.13.82,0Zm1.78,1.64h0l-1.1-1-.38.88Zm2.44.61a.35.35,0,0,0-.44.23.37.37,0,0,0,.13.48l-.2.47a.91.91,0,0,1,.71-1.66Zm-.16.59.4-.24.48.92-.55.33Z"/><path class="cls-7" d="M102.86,186.29l-.45,1.05-3.3.87h0l2.48,1.06-.45,1.05-4-1.74.45-1.05,3.31-.86h0l-2.48-1.07.45-1Z"/><path class="cls-7" d="M96.43,192.56l-.54,1.26-.89-.39,1-2.31,4.05,1.74-.45,1Z"/><path class="cls-7" d="M95.11,195.11l-.58-.58.48-1.12,3.38,3.3-.49,1.15-4.71-.22.48-1.12.82,0Zm1.78,1.63h0l-1.1-1-.38.87Zm2.63,1.11-1.12.64-.21-.48.74-.42-.21-.82.49-.16Zm.42.91-1,.29-.1-.46,1-.45Z"/><path class="cls-7" d="M97.1,199.71l-.45,1-3.3.86h0l2.48,1.07-.45,1.05L91.32,202l.45-1,3.31-.86v0L92.6,199l.45-1.05Z"/><path class="cls-7" d="M92.28,208.05a1.19,1.19,0,0,0,.57-.58.45.45,0,0,0-.14-.6c-.24-.1-.45.14-.59.3l-.19.24a1.24,1.24,0,0,1-1.54.52,1.51,1.51,0,0,1-.91-.89,2,2,0,0,1,.11-1.31,2.74,2.74,0,0,1,1.08-1.23l.65.82a1.52,1.52,0,0,0-.82.76.48.48,0,0,0,.19.68c.29.13.57-.24.73-.44.48-.58.84-.94,1.62-.61a1.43,1.43,0,0,1,.76,2,3,3,0,0,1-.88,1.13Z"/><path class="cls-7" d="M89.07,209.17l-.58-.58.48-1.11,3.38,3.29-.49,1.15-4.71-.21.48-1.13.82,0Zm1.78,1.64h0l-1.1-1-.38.87Z"/><path class="cls-7" d="M89.55,217.28l-2.27-1a2,2,0,0,1-1.25-1,2.07,2.07,0,0,1,.13-1.54,2.14,2.14,0,0,1,1-1.15,2,2,0,0,1,1.62.19l2.27,1-.45,1.05-2.13-.91c-.53-.23-1.12-.44-1.41.24s.27,1,.79,1.18l2.14.92Z"/></g></g><g class="cls-6"><g class="cls-6"><path class="cls-7" d="M75,57.54a1.25,1.25,0,0,0-.33-1.06,1.16,1.16,0,0,0-1.7,0,1.14,1.14,0,0,0,0,1.69,1.31,1.31,0,0,0,1,.4l-1,.94a3.53,3.53,0,0,1-.84-.6,2.44,2.44,0,0,1-.66-1.65,2.15,2.15,0,0,1,.73-1.65A2.27,2.27,0,0,1,73.81,55a2.33,2.33,0,0,1,1.66.74,2.52,2.52,0,0,1,.56.91Z"/><path class="cls-7" d="M77.27,60.24l1.24-1.16.79.83-3.21,3-.79-.83,1.32-1.24-1.14-1.2-1.31,1.23-.79-.83,3.21-3,.79.83L76.14,59Z"/><path class="cls-7" d="M82.43,63.23l-1.81,1.7a2,2,0,0,1-1.45.73,2.42,2.42,0,0,1-2-2.12A2,2,0,0,1,78,62.13l1.8-1.69.78.83-1.68,1.59c-.42.39-.85.85-.34,1.39s1,.13,1.4-.26l1.69-1.59Zm-.94-1.46-.06-.47,1-.07.09.64Z"/><path class="cls-7" d="M84,67.07A1.25,1.25,0,0,0,83.67,66,1.17,1.17,0,0,0,82,66a1.14,1.14,0,0,0,0,1.68,1.3,1.3,0,0,0,1,.4l-1,.94a2.93,2.93,0,0,1-.84-.59,2.42,2.42,0,0,1-.67-1.65,2.17,2.17,0,0,1,.73-1.66,2.33,2.33,0,0,1,1.62-.63,2.4,2.4,0,0,1,1.67.73,2.69,2.69,0,0,1,.55.92Z"/><path class="cls-7" d="M83.73,71l3.21-3,1.12,1.19c.54.58.68,1.17.06,1.74a.9.9,0,0,1-1,.27h0a1,1,0,0,1-.2,1.43c-.67.63-1.44.27-2-.32Zm1.42.24.1.1c.24.25.62.68,1,.35s0-.74-.3-1l-.08-.08ZM86.46,70l.09.1c.21.22.47.41.74.15s.06-.55-.15-.77l0-.06Z"/><path class="cls-7" d="M87.77,74.21l-.77.31-.83-.89,4.37-1.78.86.91L89.33,77l-.84-.89.36-.74Zm-.3,2.05a.48.48,0,1,1,0-.68A.49.49,0,0,1,87.47,76.26Zm2.51-3h0l-1.35.61.66.7Z"/><path class="cls-7" d="M92.78,74.22l.78.83L93,78.43h0l2-1.85.78.83-3.2,3-.79-.84.53-3.38h0l-2,1.86-.78-.84Z"/></g><g class="cls-6"><path class="cls-7" d="M59.6,49.23l.78.82-1.1,2.27,2.36-.93.78.83-2.75,3.51-.78-.83,1.62-2h0l-2.57,1-.31-.33,1.15-2.47h0l-2.09,1.47-.79-.83Z"/></g><g class="cls-6"><path class="cls-7" d="M61.33,56.37l-.77.3-.83-.88L64.1,54l.85.91-2.06,4.23-.84-.89.36-.73Zm2.21-1h0L62.18,56l.66.69Z"/></g><g class="cls-6"><path class="cls-7" d="M65.52,55.51l.94,1-.3,1.43,1.43-.23,1,1-2.79.39-1.54,1.45-.78-.83L65,58.27Z"/><path class="cls-7" d="M70.42,60.71l.77.82-1.1,2.27,2.37-.93.78.83-2.75,3.51-.79-.83,1.63-2h0l-2.57,1L68.43,65l1.16-2.47h0L67.48,64l-.78-.83Z"/><path class="cls-7" d="M72.14,67.85l-.76.31-.84-.89,4.37-1.79.86.91L73.7,70.62l-.84-.89.36-.73Zm2.21-1h0L73,67.48l.65.69Zm1.53-2a.38.38,0,0,0,0,.5.37.37,0,0,0,.5.06l.35.38a.91.91,0,0,1-1.24-1.32Zm.48.38-.06-.46,1-.08.08.64Z"/><path class="cls-7" d="M77.15,67.86l.79.83-.53,3.38h0l2-1.85.79.83-3.21,3-.79-.83.53-3.38h0l-2,1.85-.79-.83Z"/><path class="cls-7" d="M80.34,76.25l.94,1-.71.67-1.73-1.84,3.21-3,.79.83Z"/><path class="cls-7" d="M82.15,78.48l-.76.3-.84-.88,4.37-1.79.86.91-2.07,4.23-.84-.89.37-.73Zm2.21-1h0L83,78.11l.65.69Zm2.06-2,.15,1.28H86L86,76l-.84-.14,0-.52Zm1,0-.14,1-.46-.08,0-1.07Z"/><path class="cls-7" d="M87.16,78.49l.79.83-.53,3.37h0l2-1.84.79.83-3.21,3-.78-.83.52-3.38h0l-2,1.85L84,81.51Z"/><path class="cls-7" d="M92.9,86.23a1.26,1.26,0,0,0-.31-.76c-.15-.15-.43-.27-.61-.1s0,.47,0,.66l.13.27A1.23,1.23,0,0,1,92,87.92a1.5,1.5,0,0,1-1.17.48,1.89,1.89,0,0,1-1.16-.63A2.73,2.73,0,0,1,89,86.3L90,86a1.6,1.6,0,0,0,.36,1,.5.5,0,0,0,.71.1c.23-.22,0-.63-.11-.85-.35-.67-.54-1.14.09-1.72a1.41,1.41,0,0,1,2.11.09A3,3,0,0,1,93.86,86Z"/><path class="cls-7" d="M92.65,89.62l-.77.3L91.05,89l4.37-1.79.86.91-2.07,4.23-.84-.89.36-.73Zm2.21-1h0l-1.35.62.66.69Z"/><path class="cls-7" d="M100.28,92.41l-1.81,1.7a2,2,0,0,1-1.44.73,2.12,2.12,0,0,1-1.36-.73,2.07,2.07,0,0,1-.65-1.4,2,2,0,0,1,.82-1.4l1.8-1.7.79.83L96.74,92c-.42.39-.85.84-.34,1.38s1,.14,1.4-.25l1.69-1.6Z"/></g></g><g class="cls-6"><g class="cls-6"><path class="cls-7" d="M156.64,71.22l1.21-1.46,5.66.18,0,0-3.44-2.85,1.21-1.46,5.62,4.66-1.21,1.47L160,71.55h0l3.44,2.87-1.21,1.46Z"/><path class="cls-7" d="M164.29,61.17l-.75.19-.33-1.7,1-.26Zm5.44-.2a4,4,0,1,1-5.47.7A3.88,3.88,0,0,1,169.73,61Zm-3.89,4.7a2.07,2.07,0,1,0,2.64-3.18,2.07,2.07,0,0,0-2.64,3.18Z"/><path class="cls-7" d="M167.59,58l1.22-1.46,5.66.18v0L171,53.89l1.22-1.46,5.62,4.67-1.22,1.46L171,58.37l0,0,3.45,2.86-1.22,1.46Z"/></g><g class="cls-6"><path class="cls-7" d="M163.91,92.1l-5.62-4.67L160,85.34c.83-1,1.77-1.34,2.84-.45a1.52,1.52,0,0,1,.64,1.57h0a1.66,1.66,0,0,1,2.39,0c1.17,1,.73,2.3-.13,3.33Zm-2.2-4.3.14-.16c.32-.39.59-.85.11-1.24s-.92,0-1.25.39l-.09.11Zm2.3,1.91.15-.18c.36-.44,1-1.15.37-1.66s-1.21.21-1.61.69l-.12.15Z"/><path class="cls-7" d="M163.14,79.23a.23.23,0,0,1,0-.27.32.32,0,0,0,0-.48.19.19,0,0,0-.28,0,.21.21,0,0,0,0,.3l0,0-.49.59,0,0a.92.92,0,0,1,0-1.33,1,1,0,0,1,.59-.37.94.94,0,0,1,.71.17.8.8,0,0,1,.27.5,1,1,0,0,1-.06.51l.47.4-.48.58Zm5.18,5.58L169,86l-1.29,1.55-3.82-6.83,1.33-1.59,7.37,2.55-1.29,1.56L170,82.8Zm-2.06-3.43h0l1.28,2.09,1-1.21Z"/><path class="cls-7" d="M175,72.88a4.05,4.05,0,1,1-5.47.7A3.88,3.88,0,0,1,175,72.88Zm-3.9,4.7a2.07,2.07,0,1,0,2.64-3.17,2.07,2.07,0,0,0-2.64,3.17Z"/><path class="cls-7" d="M180.08,65.63l-2.17-1.8,1.22-1.46L184.74,67l-1.21,1.46-2.3-1.92-1.76,2.11,2.31,1.92-1.22,1.46-5.62-4.67,1.22-1.46,2.17,1.8Z"/><path class="cls-7" d="M186.75,64.62l-1.21,1.46-5.62-4.67L181.13,60Z"/><path class="cls-7" d="M182.65,55.14l-.74-.62a.21.21,0,0,1,0-.27.32.32,0,0,0,0-.48.19.19,0,0,0-.28,0,.21.21,0,0,0,0,.3l0,0-.49.59,0,0a.92.92,0,0,1,0-1.33,1,1,0,0,1,.59-.36.9.9,0,0,1,.71.16.8.8,0,0,1,.27.5,1,1,0,0,1-.06.51l.47.4Zm-1.32.73,2.07-.51.12.87-1.38.31,0,1.41-.86,0Zm3,2.69.94.78,1.36-1.64,1.24,1-1.37,1.64,1,.81L189,59.44l1.23,1-2.66,3.2L181.93,59l2.65-3.2,1.24,1Z"/><path class="cls-7" d="M185.85,54.28,187,52.84l4,1.36-2-3.71L190.2,49l6.33,3.82-1.22,1.46L191.74,52v0l2.11,4-.49.58-4.3-1.39h0l2.84,3.16-1.21,1.45Z"/></g></g><g class="cls-6"><g class="cls-6"><path class="cls-8" d="M111.07,67.65V66.51L112,66l-.92-.55V64.28l1.66,1.14,1.91-1.32v1.12l-1.16.75,1.16.82v1.12l-1.91-1.4Z"/><path class="cls-8" d="M111.85,62.89h.6v-1h.79v1h.62v-1.1h.78v2h-3.57v-2h.78Z"/><path class="cls-8" d="M111.07,59.19v-.92l1.91-.73-1.91-.76v-.93l3.57-.54v.93l-2.06.26h0l2.06.86v.37l-2.06.82h0l2.06.3v.92Z"/></g><g class="cls-6"><path class="cls-8" d="M110.8,53.19l-.22.31-.66-.54.31-.42ZM114,54l.62.24v1l-3.57-1.37v-1l3.57-1.35v1l-.62.24Zm-1.85-.65h0l1.14.38V53Z"/></g><g class="cls-6"><path class="cls-8" d="M111.07,52.16V51.05l1-.67-1-.67V48.59l1.86,1.32h1.71v.93h-1.71Z"/><path class="cls-8" d="M113.18,46.75v.4h-.73v-.4h-1.38V45.54a1.79,1.79,0,1,1,3.57,0v1.22Zm-.73-.93V45.3h.73v.52h.68v-.21a1,1,0,1,0-2,0v.22Z"/><path class="cls-8" d="M114.64,42.25v.93h-3.57v-.93Z"/><path class="cls-8" d="M109.86,40.65l.62-.84.32.29-.42.55.42.54-.32.28Zm2,.06h.6V39.66h.79v1.05h.62V39.6h.78v2h-3.57v-2h.78Zm3.49-.47a.39.39,0,0,1,.39.39.4.4,0,0,1-.39.39.39.39,0,0,1-.39-.39A.38.38,0,0,1,115.34,40.24Z"/><path class="cls-8" d="M111.07,39V38.1l2.18-1.71h-2.18v-.93h3.57v.93l-2.19,1.71h2.19V39Z"/></g><g class="cls-6"><path class="cls-8" d="M123.29,72.51l-5.87-2.35V67.42l9.67,4.14v2l-9.67,4.07V74.84Z"/></g><g class="cls-6"><path class="cls-8" d="M118,64.11a1.31,1.31,0,1,1-1.31,1.31A1.31,1.31,0,0,1,118,64.11Zm9.11.14v2.33h-6.58V64.25Z"/><path class="cls-8" d="M121.36,60.37v0a2.26,2.26,0,0,1-1.07-2.1c0-1.77,1.12-2.48,2.73-2.48h4.07V58.1h-3.21c-.62,0-1.73-.1-1.73,1,0,1,.71,1.22,1.53,1.22h3.41v2.34h-6.58V60.37Z"/><path class="cls-8" d="M127.09,51.65V54h-4.66v.82h-1.92V54h-.83a3,3,0,0,1-3.37-3,2.16,2.16,0,0,1,.23-1h2a1.93,1.93,0,0,0-.22.82c0,.61.36.81,1.1.81h1.07V50h1.92v1.63Z"/><path class="cls-8" d="M127.09,42v2.33h-.73v0a2.3,2.3,0,0,1,1,2,3.52,3.52,0,0,1-7,0,2.69,2.69,0,0,1,.86-2h-.64V42Zm-3.28,5.26a1.5,1.5,0,0,0,0-3,1.5,1.5,0,0,0,0,3Z"/><path class="cls-8" d="M122.2,36.13a2.94,2.94,0,0,0-.32,1.26c0,.27.12.73.45.73s.51-.73.58-1c.22-1.09.73-1.92,2-1.92,1.73,0,2.45,1.58,2.45,3.11a5.1,5.1,0,0,1-.76,2.66l-1.63-.85a3.71,3.71,0,0,0,.67-1.85c0-.29-.14-.73-.5-.73-.51,0-.54.73-.73,1.46a1.65,1.65,0,0,1-1.73,1.47c-1.62,0-2.34-1.47-2.34-2.9a5.19,5.19,0,0,1,.43-2.17Z"/><path class="cls-8" d="M127.09,31.34v2.33h-4.66v.76h-1.92v-.76h-2V31.34h2V30h1.92v1.32Z"/></g><g class="cls-6"><path class="cls-8" d="M139.55,68.2v2.51h-9.67V68.2Z"/><path class="cls-8" d="M133.79,64.27v0a2.44,2.44,0,0,1-1-2.08A2.4,2.4,0,0,1,134,59.92a2.53,2.53,0,0,1-1.26-2.24c0-1.66,1.09-2.24,2.61-2.24h4.19v2.33h-3.14c-.68,0-1.8,0-1.8,1s1,1.11,1.8,1.11h3.14v2.34h-3.14c-.73,0-1.85,0-1.85,1s1.12,1,1.85,1h3.14V66.6H133V64.27Z"/><path class="cls-8" d="M133.71,51.65v0a2.34,2.34,0,0,1-1-2,3.39,3.39,0,0,1,3.53-3.32,3.33,3.33,0,0,1,3.49,3.3,2.7,2.7,0,0,1-.85,2h3.92V54H133V51.65Zm2.56.07a1.5,1.5,0,0,0,0-3,1.5,1.5,0,0,0,0,3Z"/><path class="cls-8" d="M136.65,38.38V43.3a1.31,1.31,0,0,0,1.47-1.46,1.18,1.18,0,0,0-.61-1.12V38.47a2.71,2.71,0,0,1,1.71,1.25,4,4,0,0,1,.55,2.1c0,2.19-1.23,3.82-3.5,3.82A3.37,3.37,0,0,1,132.75,42a3.35,3.35,0,0,1,3.66-3.61Zm-1.35,2.17a1.33,1.33,0,0,0-1,1.33,1.31,1.31,0,0,0,1,1.38Z"/><path class="cls-8" d="M134.66,33a2.9,2.9,0,0,0-.32,1.25c0,.27.12.73.45.73s.51-.73.58-1.05c.22-1.09.73-1.91,1.95-1.91,1.73,0,2.45,1.58,2.45,3.11a5.07,5.07,0,0,1-.76,2.65l-1.63-.85a3.68,3.68,0,0,0,.67-1.84c0-.3-.14-.73-.5-.73-.51,0-.54.73-.73,1.46a1.64,1.64,0,0,1-1.73,1.46c-1.62,0-2.34-1.46-2.34-2.9a5.38,5.38,0,0,1,.42-2.17Z"/></g></g><g class="cls-6"><path class="cls-7" d="M181.74,165.47l4.49-7.19,2.67,1.66c1.28.8,1.83,1.83,1,3.21a1.74,1.74,0,0,1-1.7,1l0,0a1.91,1.91,0,0,1,.33,2.75c-.94,1.51-2.54,1.2-3.85.38Zm2.77-.26.24.15c.55.34,1.47.95,2,.16s-.44-1.36-1.05-1.74l-.19-.12Zm1.83-2.94.21.13c.5.31,1.06.55,1.45-.07s-.15-1.05-.66-1.37l-.13-.08Z"/><path class="cls-7" d="M190.82,169.4l-1.28.94-2-1.24,7.25-5.47,2,1.27-1.77,8.89-2-1.25.31-1.54Zm3.63-2.91h0l-2.2,1.81,1.55,1Z"/><path class="cls-7" d="M198.52,173.73l2.24,1.4-1,1.59-4.11-2.57,4.49-7.19,1.87,1.16Z"/><path class="cls-7" d="M210.31,178.1a4.7,4.7,0,1,1-1.67-6.18A4.51,4.51,0,0,1,210.31,178.1Zm-6-3.74a2.4,2.4,0,1,0,4.07,2.54,2.4,2.4,0,0,0-4.07-2.54Z"/></g><g class="cls-6"><path class="cls-7" d="M49,175l-1.69,1-3-5.05-1.39.84L42,170.42l4.46-2.68.85,1.43-1.39.83Z"/><path class="cls-7" d="M52.68,164l2.18,3.64a3.44,3.44,0,0,1,.7,2.69,4.14,4.14,0,0,1-4.29,2.58A3.43,3.43,0,0,1,49.22,171L47,167.4l1.68-1,2,3.4c.5.84,1.12,1.72,2.2,1.07s.59-1.6.08-2.44L51,165Zm-2.8,1-.8-.07.26-1.77,1.09.09Z"/><path class="cls-7" d="M59.31,168.82l-1.68,1-3.89-6.47,1.68-1Z"/><path class="cls-7" d="M59.31,160l2.06-1.24,2,1.08,0-2.27,2.06-1.24-.25,4.25,4.47,2-2,1.22L65,162.54l-.21,3-2,1.22.45-5Z"/><path class="cls-7" d="M71.09,160.2l.23,1.4-1.78,1.07-1.41-8L70,153.6l6.33,5-1.8,1.08-1.09-.87Zm-2-6.7-.8-.06.25-1.77,1.1.09Zm1.2,2.65h0l.54,2.48,1.4-.84Z"/><path class="cls-7" d="M78.86,151.21a2.15,2.15,0,0,0-1.91.18,2,2,0,0,0-.64,2.83,2,2,0,0,0,2.8.7,2.25,2.25,0,0,0,1-1.55l1.21,2a5.61,5.61,0,0,1-1.3,1.2,4.19,4.19,0,0,1-3,.5,3.68,3.68,0,0,1-2.51-1.82,3.93,3.93,0,0,1-.47-2.94,4.1,4.1,0,0,1,1.83-2.53,4.61,4.61,0,0,1,1.74-.59Z"/><path class="cls-7" d="M84.2,148.44,82.7,146l1.68-1,3.89,6.46-1.68,1L85,149.76l-2.43,1.46,1.59,2.66-1.68,1-3.89-6.47,1.68-1,1.5,2.49Z"/></g><g class="cls-6"><g class="cls-6"><path class="cls-7" d="M140.5,152.9l.77,1.62a1.41,1.41,0,0,1-.63,2.12,1.38,1.38,0,0,1-2.07-.78l-.29-.6-1.35.65-.5-1.06Zm-1.36,1.95.08.18c.18.39.36.76.86.53s.35-.6.16-1l-.09-.18Z"/><path class="cls-7" d="M141.87,159.81l1.57-.75.5,1.06-4.07,1.94-.5-1.06,1.67-.79-.73-1.53-1.67.8-.51-1.06,4.07-1.95.51,1.06-1.57.75Z"/><path class="cls-7" d="M140.71,163.81l-.5-1.06,4.06-1.94.51,1.06Z"/><path class="cls-7" d="M144.72,164l-.68.33.57,1.19-.9.43-.57-1.19-.7.33.6,1.26-.89.43L141,164.5l4.07-1.94,1.11,2.32-.9.42Zm2.3-1-.25,1.3-.52-.17.18-.85-.77-.39.2-.49Zm.12,1,.08-.48,1,.26-.12.64Z"/><path class="cls-7" d="M148.22,169.06l-2.29,1.09a2,2,0,0,1-1.64.26,2.47,2.47,0,0,1-1.29-2.7,2,2,0,0,1,1.23-1.11l2.29-1.09.5,1.06-2.14,1c-.53.25-1.09.57-.76,1.25s.92.44,1.45.18l2.14-1Z"/><path class="cls-7" d="M149.63,172l.5,1-1.78,1.87,2.6-.17.5,1-3.78,2.56-.5-1,2.2-1.42h0l-2.81.14-.2-.42,1.9-2.05h0l-2.5.78-.5-1.06Z"/><path class="cls-7" d="M153.64,180.42l-2.28,1.09a2,2,0,0,1-1.64.26,2.1,2.1,0,0,1-1.1-1.13,2.13,2.13,0,0,1-.19-1.56,2,2,0,0,1,1.23-1.12l2.29-1.09.5,1.06-2.14,1c-.53.25-1.09.57-.76,1.25s.92.44,1.45.19l2.14-1Z"/><path class="cls-7" d="M151.1,183.73l-.84.06-.54-1.12,4.82-.38.55,1.15-3.34,3.48-.54-1.13.58-.6Zm2.46-.26h0l-1.5.18.42.88Z"/><path class="cls-7" d="M156.53,190.5l1.57-.75.5,1.05-4.06,1.95-.51-1.06,1.67-.8-.73-1.52-1.67.79-.5-1,4.06-2,.51,1.06-1.57.75Z"/><path class="cls-7" d="M156.07,194.14l-.84.06-.54-1.13,4.82-.37.55,1.15-3.34,3.48-.54-1.13.59-.6Zm2.46-.27h0L157,194l.42.88Zm2.37-1.61-.46,1L160,193l.3-1.05Z"/><path class="cls-7" d="M161,195.72l.51,1.05-1.57,3.13h0l2.49-1.19.5,1.06-4.07,1.94-.5-1.05,1.57-3.13h0l-2.49,1.19-.51-1.06Z"/><path class="cls-7" d="M163.37,205.39a2.92,2.92,0,0,1-1.81.35,2.14,2.14,0,0,1-1.6-1.3,2.27,2.27,0,0,1,1.11-3.19,2.31,2.31,0,0,1,3.25,1.16,2.09,2.09,0,0,1-.27,2.38l-.9-.8a1,1,0,0,0,.23-1.19,1.44,1.44,0,0,0-2.55,1.24.85.85,0,0,0,1.11.51l-.41-.86.83-.4Z"/></g><g class="cls-6"><path class="cls-7" d="M164,208.8v0l3-.41.4.84-2.25,2.06h0l3-.49.53,1.1-4.69.65-.52-1.08,2-1.84h0l-2.74.32-.52-1.07,3.49-3.16.53,1.1Z"/><path class="cls-7" d="M168.44,213.69l-.68.32.57,1.19-.9.43-.57-1.19-.7.33.6,1.26-.9.43-1.1-2.32,4.07-1.94,1.1,2.31-.89.43Z"/><path class="cls-7" d="M169.35,219.51l-.81.39-.23-.49-.84.4-.47-1,.84-.4-1-2,.68-.32,3.3.35.67,1.39L169.12,219Zm.86-2.22h0l-2-.2.46,1Z"/><path class="cls-7" d="M169.05,221.78a.7.7,0,1,1,.33-.93A.69.69,0,0,1,169.05,221.78Z"/><path class="cls-7" d="M172.41,224.93c-1.06.51-2.44.54-3-.68s.31-2.27,1.37-2.77,2.44-.54,3,.67S173.47,224.42,172.41,224.93Zm-1.14-2.4c-.4.18-1.21.73-1,1.28s1.2.25,1.59.07,1.2-.74.94-1.28S171.66,222.34,171.27,222.53Z"/></g></g><g class="cls-6"><path class="cls-7" d="M141.12,175.61l-1.08.33.41.7a3.29,3.29,0,0,1-1.67,4.64,3.4,3.4,0,0,1-2.94,0,4.66,4.66,0,0,1-2-2.23,5.85,5.85,0,0,1-.58-3.27l2.33-.69a4.17,4.17,0,0,0,.16,3,1.49,1.49,0,0,0,2,.78,1.86,1.86,0,0,0,.59-2.65,4.37,4.37,0,0,0-1.17-1.52l5.17-1.52,2.19,4.6-1.94.93Z"/><path class="cls-7" d="M144.51,189.07c-2.29,1.1-5.3,1.17-6.56-1.47s.68-4.94,3-6,5.31-1.15,6.57,1.48S146.81,188,144.51,189.07ZM142,183.85c-.85.41-2.62,1.6-2.05,2.78s2.6.56,3.45.15,2.6-1.59,2-2.77S142.89,183.44,142,183.85Z"/><path class="cls-7" d="M148.36,197.12c-2.3,1.09-5.31,1.16-6.57-1.48s.68-4.93,3-6,5.31-1.16,6.57,1.47S150.66,196,148.36,197.12Zm-2.48-5.23c-.86.41-2.63,1.6-2.06,2.78s2.6.56,3.46.15,2.6-1.58,2-2.77S146.73,191.48,145.88,191.89Z"/><path class="cls-7" d="M155.71,201.13l1.36,2.84-5.87-1.51-2.83,6.06-1.42-3,2.42-4.8v0l-3.84,1.84-1.1-2.3,8.85-4.23,1.1,2.3-3.65,1.74v0Z"/></g><g class="cls-6"><g class="cls-6"><path class="cls-7" d="M16,97.32l1.76.38c1,.2,1.51.78,1.29,1.8a1.38,1.38,0,0,1-1.89,1.16l-.65-.14L16.16,102,15,101.74Zm.71,2.28.19,0c.42.09.83.18.95-.36s-.26-.65-.71-.74l-.19-.05Z"/><path class="cls-7" d="M22.28,100.46l.36-1.7,1.15.25-.95,4.42-1.15-.25.39-1.81L20.42,101,20,102.82l-1.15-.24,1-4.43L21,98.4l-.36,1.71Z"/><path class="cls-7" d="M24.74,103.84l-1.15-.25,1-4.42,1.14.25Z"/><path class="cls-7" d="M27.39,100.8l-.16.74,1.29.28-.21,1L27,102.51l-.17.76,1.37.3-.21,1L25.49,104l1-4.42,2.51.54-.21,1Zm.6-2.45.87,1-.44.32L27.85,99l-.78.38-.26-.47Zm.89.54-.33-.36.84-.67.44.49Z"/><path class="cls-7" d="M33.51,101.1,33,103.58a2,2,0,0,1-.8,1.46,2.47,2.47,0,0,1-2.93-.63,2,2,0,0,1-.13-1.66l.54-2.48,1.15.24-.5,2.33c-.13.58-.22,1.21.52,1.37s.91-.46,1-1l.5-2.33Z"/><path class="cls-7" d="M36.73,101.79l1.14.25.38,2.55,1.46-2.16,1.15.25-.29,4.57L39.42,107l.23-2.62h0L38,106.7l-.46-.1-.47-2.77h0l-.92,2.47L35,106.05Z"/><path class="cls-7" d="M45.85,103.75l-.54,2.49a2,2,0,0,1-.8,1.46,2.12,2.12,0,0,1-1.57.18,2.18,2.18,0,0,1-1.36-.81,2,2,0,0,1-.13-1.66l.54-2.49,1.15.25-.5,2.33c-.13.57-.22,1.21.52,1.37s.91-.46,1-1l.5-2.33Z"/><path class="cls-7" d="M46.92,107.81l-.47.7-1.22-.26,2.65-4.06,1.25.27.72,4.78L48.62,109l-.12-.83Zm1.29-2.12h0L47.42,107l1,.2Z"/><path class="cls-7" d="M55.61,107.64l.37-1.7,1.15.24-1,4.42L55,110.36l.39-1.81-1.66-.36L53.37,110l-1.15-.25,1-4.42,1.15.25L54,107.29Z"/><path class="cls-7" d="M58.22,110.24l-.47.7-1.22-.26,2.65-4.05,1.26.27.71,4.77-1.23-.26-.12-.83Zm1.29-2.11h0l-.78,1.31,1,.2Zm.17-2.87.49.95-.44.19-.65-.88Z"/><path class="cls-7" d="M62.46,107.33l1.15.25,1.52,3.16h0l.59-2.7,1.14.24-1,4.42-1.15-.24-1.52-3.17h0L62.66,112l-1.15-.25Z"/><path class="cls-7" d="M71.62,111.35a2.93,2.93,0,0,1-.83,1.65,2.18,2.18,0,0,1-2,.47,2.41,2.41,0,1,1,1-4.7,2.08,2.08,0,0,1,1.73,1.66l-1.19.23a1,1,0,0,0-.8-.91,1.44,1.44,0,0,0-.58,2.78.85.85,0,0,0,1.09-.57l-.94-.2.2-.9Z"/></g><g class="cls-6"><path class="cls-7" d="M74.7,113h0l1.54-2.66.92.2.25,3h0l1.45-2.67,1.2.26-2.37,4.11L76.54,115l-.22-2.73h0l-1.42,2.37-1.16-.25-.37-4.7,1.2.25Z"/><path class="cls-7" d="M81.31,112.41l-.16.74,1.29.28-.21,1-1.29-.28-.17.76,1.37.3-.21,1-2.52-.54,1-4.42,2.51.54-.21,1Z"/><path class="cls-7" d="M86.49,115.25l-.19.88-.53-.11-.2.91-1.07-.23.2-.91-2.14-.46.15-.74,2.31-2.4,1.5.32L86,115.14Zm-1.23-2h0l-1.4,1.48,1,.22Z"/><path class="cls-7" d="M88.11,116.88a.71.71,0,0,1-.84.54.7.7,0,0,1-.54-.83.71.71,0,0,1,.84-.54A.7.7,0,0,1,88.11,116.88Z"/><path class="cls-7" d="M92.66,116.15c-.24,1.15-1.07,2.26-2.39,2s-1.61-1.64-1.36-2.79,1.08-2.26,2.39-2S92.91,115,92.66,116.15Zm-2.6-.57c-.1.43-.16,1.41.43,1.54s.94-.8,1-1.22.15-1.4-.44-1.53S90.15,115.15,90.06,115.58Z"/></g></g><g class="cls-6"><path class="cls-7" d="M32.49,110.29l.45-2.11,3.88.83-2.07,9.61-2.5-.54,1.61-7.49Z"/><path class="cls-7" d="M47,116.24c-.54,2.5-2.32,4.92-5.19,4.31s-3.5-3.57-3-6.07,2.34-4.92,5.19-4.31S47.58,113.74,47,116.24ZM41.38,115c-.21.93-.34,3.06.94,3.34s2-1.72,2.24-2.65.33-3-1-3.31S41.58,114.08,41.38,115Z"/><path class="cls-7" d="M55.78,118.12c-.54,2.5-2.33,4.92-5.19,4.31s-3.5-3.57-3-6.07,2.34-4.92,5.19-4.3S56.32,115.62,55.78,118.12Zm-5.67-1.23c-.2.93-.34,3.06,1,3.33s2-1.72,2.24-2.65.33-3-1-3.31S50.31,116,50.11,116.89Z"/><path class="cls-7" d="M63.46,114.75l3.1.67-4.8,3.72,3.08,6-3.24-.69-2.33-4.86h0l-.9,4.17-2.5-.54,2.07-9.6,2.5.53-.85,4h0Z"/></g></g></g></g></g></svg>