<svg xmlns="http://www.w3.org/2000/svg" viewBox="0 0 252.26 251.98"><defs><style>.cls-1{fill:#ef0;}.cls-2{fill:#00acc2;}.cls-3{fill:#fb8b00;}.cls-4{fill:#df3b37;}.cls-5{fill:#474747;}.cls-6{font-size:5.84px;}.cls-14,.cls-15,.cls-16,.cls-19,.cls-22,.cls-6,.cls-9{fill:#fff;}.cls-10,.cls-14,.cls-15,.cls-19,.cls-22,.cls-6,.cls-9{font-family:ElleFutura-Bold, Elle Futura;font-weight:700;}.cls-7{letter-spacing:-0.12em;}.cls-8{letter-spacing:-0.12em;}.cls-9{font-size:12.21px;}.cls-10{font-size:7.32px;fill:#7f0506;}.cls-11{letter-spacing:-0.12em;}.cls-12{font-size:17.08px;}.cls-13{letter-spacing:0.02em;}.cls-14{font-size:11.23px;}.cls-15{font-size:10.01px;}.cls-16{font-size:5px;font-family:ElleFutura-Heavy, Elle Futura;font-weight:800;}.cls-17,.cls-18{font-size:5.87px;}.cls-17,.cls-20{font-family:ElleFutura-Medium, Elle Futura;font-weight:500;}.cls-17{letter-spacing:0em;}.cls-19{font-size:14.93px;}.cls-20,.cls-21{font-size:6.04px;}.cls-22{font-size:16.76px;}</style></defs><g id="Layer_2" data-name="Layer 2"><g id="Layer_1-2" data-name="Layer 1"><path class="cls-1" d="M82.28,8.54l43.85,117.74L170,8.54a116.81,116.81,0,0,0-87.7,0Z"/><path class="cls-2" d="M16.86,64.27l109.27,62L84,7.9A116.82,116.82,0,0,0,16.86,64.27Z"/><path class="cls-3" d="M2.57,149l123.56-22.73L17.8,62.65A116.77,116.77,0,0,0,2.57,149Z"/><path class="cls-4" d="M46.09,223.12l80-96.84L2.24,147.17a116.84,116.84,0,0,0,43.85,76Z"/><path class="cls-2" d="M127.06,251.91l-.93-125.63L44.65,221.91a116.82,116.82,0,0,0,82.41,30Z"/><path class="cls-3" d="M207.6,221.92l-81.47-95.64-.94,125.63a116.78,116.78,0,0,0,82.41-30Z"/><path class="cls-4" d="M250,147.17,126.13,126.28l80,96.84a116.72,116.72,0,0,0,43.85-76Z"/><path class="cls-2" d="M234.46,62.65,126.13,126.28,249.69,149a116.86,116.86,0,0,0-15.23-86.37Z"/><path class="cls-3" d="M168.22,7.9,126.13,126.28l109.27-62A116.81,116.81,0,0,0,168.22,7.9Z"/><polygon class="cls-5" points="245.65 147.94 127.12 126.12 233.34 65.83 233.01 65.25 126.74 125.56 167.57 10.73 166.94 10.51 126.13 125.27 84.36 7.79 83.73 8.01 125.5 125.52 19.71 63.38 19.37 63.96 125.16 126.1 3.24 146.66 3.35 147.32 125.27 126.76 46.95 218.84 47.46 219.27 125.78 127.2 124.85 246.96 125.52 246.96 126.46 127.2 203.21 220.1 203.73 219.68 126.98 126.78 245.53 148.6 245.65 147.94"/><text class="cls-6" transform="matrix(0.99, -0.12, 0.12, 0.99, 180.63, 115.33)">CHÚC BẠN<tspan x="-13.97" y="7.01">M</tspan><tspan class="cls-7" x="-8.22" y="7.01">A</tspan><tspan x="-4.36" y="7.01">Y MẮN LẦN SAU</tspan></text><text class="cls-6" transform="translate(110.18 175.84) rotate(113.24)">CHÚC BẠN<tspan x="-13.97" y="7.01">M</tspan><tspan class="cls-7" x="-8.22" y="7.01">A</tspan><tspan x="-4.36" y="7.01">Y MẮN LẦN SAU</tspan></text><text class="cls-6" transform="translate(70.48 56.98) rotate(46.71)">CHÚC BẠN<tspan x="-13.96" y="7.01">M</tspan><tspan class="cls-8" x="-8.22" y="7.01">A</tspan><tspan x="-4.36" y="7.01">Y MẮN LẦN SAU</tspan></text><text class="cls-9" transform="translate(173.73 78.56) rotate(-50.27)">QUẠT</text><text class="cls-10" transform="translate(120.64 81.72) rotate(-90)">XE M<tspan class="cls-11" x="19.51" y="0">Á</tspan><tspan x="24.35" y="0">Y ĐIỆN</tspan><tspan class="cls-12"><tspan class="cls-13" x="-6.27" y="15.2">V</tspan><tspan x="7.07" y="15.2">infast</tspan></tspan></text><text class="cls-14" transform="matrix(0.85, 0.53, -0.53, 0.85, 181.13, 165.09)">BALO</text><text class="cls-15" transform="translate(45.83 176.92) rotate(-31.02)">TÚI XÁCH</text><text class="cls-16" transform="translate(141.92 157.79) rotate(60.14)"><tspan xml:space="preserve">PHIẾU MUA HÀNG     </tspan><tspan class="cls-17" x="48.23" y="0"> </tspan><tspan class="cls-18" x="49.93" y="0">WE4.0</tspan></text><text class="cls-19" transform="translate(133.05 172.25) rotate(68.31)">500K</text><text class="cls-16" transform="translate(18.41 95.54) rotate(16)"><tspan xml:space="preserve">PHIẾU MUA HÀNG    </tspan><tspan class="cls-20" x="46.79" y="0" xml:space="preserve">  </tspan><tspan class="cls-21" x="50.28" y="0">WE4.0</tspan></text><text class="cls-22" transform="translate(25.76 116.88) rotate(12.49)">100K</text></g></g></svg>