<svg width="158" height="48" viewBox="0 0 158 48" fill="none" xmlns="http://www.w3.org/2000/svg">
<g filter="url(#filter0_d)">
<rect width="142" height="32" rx="16" transform="matrix(1 0 0 -1 8 36)" fill="#30437D"/>
</g>
<path d="M25.397 28.9972V20.8012H28.162L28.573 17.5922H25.397V15.5482C25.397 14.6222 25.655 13.9882 26.984 13.9882H28.668V11.1272C27.8487 11.0394 27.0251 10.997 26.201 11.0002C23.757 11.0002 22.079 12.4922 22.079 15.2312V17.5862H19.332V20.7952H22.085V28.9972H25.397Z" fill="white"/>
<path d="M61.7461 19.8604H58.7627V23H57.8252V15.8906H62.2295V16.6621H58.7627V19.0938H61.7461V19.8604ZM66.3066 23C66.2546 22.8958 66.2122 22.7103 66.1797 22.4434C65.7598 22.8796 65.2585 23.0977 64.6758 23.0977C64.1549 23.0977 63.7269 22.9512 63.3916 22.6582C63.0596 22.362 62.8936 21.9876 62.8936 21.5352C62.8936 20.985 63.1019 20.5586 63.5186 20.2559C63.9385 19.9499 64.5277 19.7969 65.2861 19.7969H66.165V19.3818C66.165 19.0661 66.0706 18.8154 65.8818 18.6299C65.693 18.4411 65.4147 18.3467 65.0469 18.3467C64.7246 18.3467 64.4544 18.4281 64.2363 18.5908C64.0182 18.7536 63.9092 18.9505 63.9092 19.1816H63.001C63.001 18.918 63.0938 18.6641 63.2793 18.4199C63.4681 18.1725 63.722 17.9772 64.041 17.834C64.3633 17.6908 64.7165 17.6191 65.1006 17.6191C65.7093 17.6191 66.1862 17.7721 66.5312 18.0781C66.8763 18.3809 67.0553 18.7992 67.0684 19.333V21.7646C67.0684 22.2497 67.1302 22.6354 67.2539 22.9219V23H66.3066ZM64.8076 22.3115C65.0908 22.3115 65.3594 22.2383 65.6133 22.0918C65.8672 21.9453 66.0511 21.7549 66.165 21.5205V20.4365H65.457C64.3503 20.4365 63.7969 20.7604 63.7969 21.4082C63.7969 21.6914 63.8913 21.9128 64.0801 22.0723C64.2689 22.2318 64.5114 22.3115 64.8076 22.3115ZM70.6035 22.3604C70.9258 22.3604 71.2074 22.2627 71.4482 22.0674C71.6891 21.8721 71.8226 21.6279 71.8486 21.335H72.7031C72.6868 21.6377 72.5827 21.9258 72.3906 22.1992C72.1986 22.4727 71.9414 22.6908 71.6191 22.8535C71.3001 23.0163 70.9616 23.0977 70.6035 23.0977C69.8841 23.0977 69.3112 22.8584 68.8848 22.3799C68.4616 21.8981 68.25 21.2406 68.25 20.4072V20.2559C68.25 19.7415 68.3444 19.2842 68.5332 18.8838C68.722 18.4834 68.9922 18.1725 69.3438 17.9512C69.6986 17.7298 70.1169 17.6191 70.5986 17.6191C71.1911 17.6191 71.6826 17.7965 72.0732 18.1514C72.4671 18.5062 72.6771 18.9668 72.7031 19.5332H71.8486C71.8226 19.1914 71.6924 18.9115 71.458 18.6934C71.2269 18.472 70.9404 18.3613 70.5986 18.3613C70.1396 18.3613 69.7832 18.5273 69.5293 18.8594C69.2786 19.1882 69.1533 19.665 69.1533 20.29V20.4609C69.1533 21.0697 69.2786 21.5384 69.5293 21.8672C69.7799 22.196 70.138 22.3604 70.6035 22.3604ZM75.9111 23.0977C75.195 23.0977 74.6123 22.8633 74.1631 22.3945C73.7139 21.9225 73.4893 21.2926 73.4893 20.5049V20.3389C73.4893 19.8148 73.5885 19.3477 73.7871 18.9375C73.9889 18.5241 74.2689 18.2018 74.627 17.9707C74.9883 17.7363 75.3789 17.6191 75.7988 17.6191C76.4857 17.6191 77.0195 17.8454 77.4004 18.2979C77.7812 18.7503 77.9717 19.3981 77.9717 20.2412V20.6172H74.3926C74.4056 21.138 74.557 21.5596 74.8467 21.8818C75.1396 22.2008 75.5107 22.3604 75.96 22.3604C76.279 22.3604 76.5492 22.2952 76.7705 22.165C76.9919 22.0348 77.1855 21.8623 77.3516 21.6475L77.9033 22.0771C77.4606 22.7575 76.7965 23.0977 75.9111 23.0977ZM75.7988 18.3613C75.4342 18.3613 75.1283 18.4948 74.8809 18.7617C74.6335 19.0254 74.4805 19.3965 74.4219 19.875H77.0684V19.8066C77.0423 19.3477 76.9186 18.9928 76.6973 18.7422C76.4759 18.4883 76.1764 18.3613 75.7988 18.3613ZM83.4941 20.417C83.4941 21.2243 83.3086 21.8737 82.9375 22.3652C82.5664 22.8535 82.0684 23.0977 81.4434 23.0977C80.776 23.0977 80.2601 22.8617 79.8955 22.3896L79.8516 23H79.0215V15.5H79.9248V18.2979C80.2894 17.8454 80.7923 17.6191 81.4336 17.6191C82.0749 17.6191 82.5778 17.8617 82.9424 18.3467C83.3102 18.8317 83.4941 19.4958 83.4941 20.3389V20.417ZM82.5908 20.3145C82.5908 19.6992 82.472 19.224 82.2344 18.8887C81.9967 18.5534 81.6549 18.3857 81.209 18.3857C80.6133 18.3857 80.1852 18.6624 79.9248 19.2158V21.501C80.2015 22.0544 80.6328 22.3311 81.2188 22.3311C81.6517 22.3311 81.9886 22.1634 82.2295 21.8281C82.4704 21.4928 82.5908 20.9883 82.5908 20.3145ZM84.3975 20.3096C84.3975 19.792 84.4984 19.3265 84.7002 18.9131C84.9053 18.4997 85.1885 18.1807 85.5498 17.9561C85.9144 17.7314 86.3294 17.6191 86.7949 17.6191C87.5143 17.6191 88.0954 17.8682 88.5381 18.3662C88.984 18.8643 89.207 19.5267 89.207 20.3535V20.417C89.207 20.9313 89.1077 21.3936 88.9092 21.8037C88.7139 22.2106 88.4323 22.528 88.0645 22.7559C87.6999 22.9837 87.2799 23.0977 86.8047 23.0977C86.0885 23.0977 85.5075 22.8486 85.0615 22.3506C84.6188 21.8525 84.3975 21.1934 84.3975 20.373V20.3096ZM85.3057 20.417C85.3057 21.0029 85.4408 21.4733 85.7109 21.8281C85.9844 22.1829 86.349 22.3604 86.8047 22.3604C87.2637 22.3604 87.6283 22.1813 87.8984 21.8232C88.1686 21.4619 88.3037 20.9574 88.3037 20.3096C88.3037 19.7301 88.1654 19.2614 87.8887 18.9033C87.6152 18.542 87.2507 18.3613 86.7949 18.3613C86.349 18.3613 85.9893 18.5387 85.7158 18.8936C85.4424 19.2484 85.3057 19.7562 85.3057 20.417ZM90.1006 20.3096C90.1006 19.792 90.2015 19.3265 90.4033 18.9131C90.6084 18.4997 90.8916 18.1807 91.2529 17.9561C91.6175 17.7314 92.0326 17.6191 92.498 17.6191C93.2174 17.6191 93.7985 17.8682 94.2412 18.3662C94.6872 18.8643 94.9102 19.5267 94.9102 20.3535V20.417C94.9102 20.9313 94.8109 21.3936 94.6123 21.8037C94.417 22.2106 94.1354 22.528 93.7676 22.7559C93.403 22.9837 92.9831 23.0977 92.5078 23.0977C91.7917 23.0977 91.2106 22.8486 90.7646 22.3506C90.3219 21.8525 90.1006 21.1934 90.1006 20.373V20.3096ZM91.0088 20.417C91.0088 21.0029 91.1439 21.4733 91.4141 21.8281C91.6875 22.1829 92.0521 22.3604 92.5078 22.3604C92.9668 22.3604 93.3314 22.1813 93.6016 21.8232C93.8717 21.4619 94.0068 20.9574 94.0068 20.3096C94.0068 19.7301 93.8685 19.2614 93.5918 18.9033C93.3184 18.542 92.9538 18.3613 92.498 18.3613C92.0521 18.3613 91.6924 18.5387 91.4189 18.8936C91.1455 19.2484 91.0088 19.7562 91.0088 20.417ZM97.5176 20.5537L96.9512 21.1445V23H96.0479V15.5H96.9512V20.0361L97.4346 19.4551L99.0801 17.7168H100.179L98.123 19.9238L100.418 23H99.3584L97.5176 20.5537Z" fill="white"/>
<defs>
<filter id="filter0_d" x="0" y="0" width="158" height="48" filterUnits="userSpaceOnUse" color-interpolation-filters="sRGB">
<feFlood flood-opacity="0" result="BackgroundImageFix"/>
<feColorMatrix in="SourceAlpha" type="matrix" values="0 0 0 0 0 0 0 0 0 0 0 0 0 0 0 0 0 0 127 0"/>
<feOffset dy="4"/>
<feGaussianBlur stdDeviation="4"/>
<feColorMatrix type="matrix" values="0 0 0 0 0 0 0 0 0 0 0 0 0 0 0 0 0 0 0.1 0"/>
<feBlend mode="normal" in2="BackgroundImageFix" result="effect1_dropShadow"/>
<feBlend mode="normal" in="SourceGraphic" in2="effect1_dropShadow" result="shape"/>
</filter>
</defs>
</svg>
