<svg width="141" height="48" viewBox="0 0 141 48" fill="none" xmlns="http://www.w3.org/2000/svg">
<g filter="url(#filter0_d)">
<rect width="125" height="32" rx="16" transform="matrix(1 0 0 -1 8 36)" fill="white"/>
</g>
<path d="M64.0742 22.0674C63.8333 22.4124 63.4964 22.6712 63.0635 22.8438C62.6338 23.013 62.1325 23.0977 61.5596 23.0977C60.9801 23.0977 60.4658 22.9626 60.0166 22.6924C59.5674 22.4189 59.2191 22.0316 58.9717 21.5303C58.7275 21.029 58.6022 20.4479 58.5957 19.7871V19.167C58.5957 18.096 58.8447 17.266 59.3428 16.6768C59.8441 16.0876 60.5472 15.793 61.4521 15.793C62.1943 15.793 62.7917 15.9834 63.2441 16.3643C63.6966 16.7419 63.9733 17.279 64.0742 17.9756H63.1367C62.9609 17.0348 62.401 16.5645 61.457 16.5645C60.8288 16.5645 60.3519 16.7858 60.0264 17.2285C59.7041 17.668 59.5413 18.306 59.5381 19.1426V19.7236C59.5381 20.5212 59.7204 21.1559 60.085 21.6279C60.4495 22.0967 60.9427 22.3311 61.5645 22.3311C61.916 22.3311 62.2236 22.292 62.4873 22.2139C62.751 22.1357 62.9691 22.0039 63.1416 21.8184V20.2217H61.4961V19.46H64.0742V22.0674ZM66.3496 17.7168L66.374 18.3027C66.7614 17.847 67.2839 17.6191 67.9414 17.6191C68.6803 17.6191 69.1833 17.9023 69.4502 18.4688C69.626 18.2148 69.8538 18.0098 70.1338 17.8535C70.417 17.6973 70.7507 17.6191 71.1348 17.6191C72.2936 17.6191 72.8828 18.2327 72.9023 19.46V23H71.999V19.5137C71.999 19.1361 71.9128 18.8545 71.7402 18.6689C71.5677 18.4801 71.278 18.3857 70.8711 18.3857C70.5358 18.3857 70.2575 18.4867 70.0361 18.6885C69.8148 18.887 69.6862 19.1556 69.6504 19.4941V23H68.7422V19.5381C68.7422 18.7699 68.3662 18.3857 67.6143 18.3857C67.0218 18.3857 66.6165 18.638 66.3984 19.1426V23H65.4951V17.7168H66.3496ZM77.5312 23C77.4792 22.8958 77.4368 22.7103 77.4043 22.4434C76.9844 22.8796 76.4831 23.0977 75.9004 23.0977C75.3796 23.0977 74.9515 22.9512 74.6162 22.6582C74.2842 22.362 74.1182 21.9876 74.1182 21.5352C74.1182 20.985 74.3265 20.5586 74.7432 20.2559C75.1631 19.9499 75.7523 19.7969 76.5107 19.7969H77.3896V19.3818C77.3896 19.0661 77.2952 18.8154 77.1064 18.6299C76.9176 18.4411 76.6393 18.3467 76.2715 18.3467C75.9492 18.3467 75.679 18.4281 75.4609 18.5908C75.2428 18.7536 75.1338 18.9505 75.1338 19.1816H74.2256C74.2256 18.918 74.3184 18.6641 74.5039 18.4199C74.6927 18.1725 74.9466 17.9772 75.2656 17.834C75.5879 17.6908 75.9411 17.6191 76.3252 17.6191C76.9339 17.6191 77.4108 17.7721 77.7559 18.0781C78.1009 18.3809 78.2799 18.7992 78.293 19.333V21.7646C78.293 22.2497 78.3548 22.6354 78.4785 22.9219V23H77.5312ZM76.0322 22.3115C76.3154 22.3115 76.584 22.2383 76.8379 22.0918C77.0918 21.9453 77.2757 21.7549 77.3896 21.5205V20.4365H76.6816C75.5749 20.4365 75.0215 20.7604 75.0215 21.4082C75.0215 21.6914 75.1159 21.9128 75.3047 22.0723C75.4935 22.2318 75.736 22.3115 76.0322 22.3115ZM80.6904 23H79.7871V17.7168H80.6904V23ZM79.7139 16.3154C79.7139 16.1689 79.7578 16.0452 79.8457 15.9443C79.9368 15.8434 80.0703 15.793 80.2461 15.793C80.4219 15.793 80.5553 15.8434 80.6465 15.9443C80.7376 16.0452 80.7832 16.1689 80.7832 16.3154C80.7832 16.4619 80.7376 16.584 80.6465 16.6816C80.5553 16.7793 80.4219 16.8281 80.2461 16.8281C80.0703 16.8281 79.9368 16.7793 79.8457 16.6816C79.7578 16.584 79.7139 16.4619 79.7139 16.3154ZM83.1221 23H82.2188V15.5H83.1221V23Z" fill="black"/>
<path d="M33.8055 18.0415H33V18H24V22H29.6515C28.827 24.3285 26.6115 26 24 26C20.6865 26 18 23.3135 18 20C18 16.6865 20.6865 14 24 14C25.5295 14 26.921 14.577 27.9805 15.5195L30.809 12.691C29.023 11.0265 26.634 10 24 10C18.4775 10 14 14.4775 14 20C14 25.5225 18.4775 30 24 30C29.5225 30 34 25.5225 34 20C34 19.3295 33.931 18.675 33.8055 18.0415Z" fill="#FFC107"/>
<path d="M15.1531 15.3455L18.4386 17.755C19.3276 15.554 21.4806 14 24.0001 14C25.5296 14 26.9211 14.577 27.9806 15.5195L30.8091 12.691C29.0231 11.0265 26.6341 10 24.0001 10C20.1591 10 16.8281 12.1685 15.1531 15.3455Z" fill="#FF3D00"/>
<path d="M23.9999 29.9999C26.5829 29.9999 28.9299 29.0114 30.7044 27.4039L27.6094 24.7849C26.5717 25.574 25.3036 26.0009 23.9999 25.9999C21.3989 25.9999 19.1904 24.3414 18.3584 22.0269L15.0974 24.5394C16.7524 27.7779 20.1134 29.9999 23.9999 29.9999Z" fill="#4CAF50"/>
<path d="M33.8055 18.0415H33V18H24V22H29.6515C29.2571 23.1082 28.5467 24.0766 27.608 24.7855L27.6095 24.7845L30.7045 27.4035C30.4855 27.6025 34 25 34 20C34 19.3295 33.931 18.675 33.8055 18.0415Z" fill="#1976D2"/>
<defs>
<filter id="filter0_d" x="0" y="0" width="141" height="48" filterUnits="userSpaceOnUse" color-interpolation-filters="sRGB">
<feFlood flood-opacity="0" result="BackgroundImageFix"/>
<feColorMatrix in="SourceAlpha" type="matrix" values="0 0 0 0 0 0 0 0 0 0 0 0 0 0 0 0 0 0 127 0"/>
<feOffset dy="4"/>
<feGaussianBlur stdDeviation="4"/>
<feColorMatrix type="matrix" values="0 0 0 0 0 0 0 0 0 0 0 0 0 0 0 0 0 0 0.1 0"/>
<feBlend mode="normal" in2="BackgroundImageFix" result="effect1_dropShadow"/>
<feBlend mode="normal" in="SourceGraphic" in2="effect1_dropShadow" result="shape"/>
</filter>
</defs>
</svg>
