<?xml version="1.0" standalone="no"?>
<!DOCTYPE svg PUBLIC "-//W3C//DTD SVG 20010904//EN"
 "http://www.w3.org/TR/2001/REC-SVG-20010904/DTD/svg10.dtd">
<svg version="1.0" xmlns="http://www.w3.org/2000/svg"
 width="181.000000pt" height="181.000000pt" viewBox="0 0 181.000000 181.000000"
 preserveAspectRatio="xMidYMid meet">

<g class="fill-border" transform="translate(0.000000,181.000000) scale(0.100000,-0.100000)"
fill="#562363" stroke="none">
<path d="M794 1800 c-82 -10 -217 -51 -289 -88 -396 -199 -591 -655 -459
-1074 47 -147 115 -261 223 -369 308 -307 782 -351 1146 -106 321 216 466 637
349 1009 -78 248 -252 445 -488 553 -139 64 -330 93 -482 75z m268 -64 c171
-33 312 -108 439 -235 126 -127 197 -258 233 -434 42 -202 -3 -443 -116 -617
-54 -83 -175 -204 -258 -258 -142 -92 -317 -138 -494 -129 -249 12 -454 116
-618 310 -220 263 -249 663 -68 968 176 296 541 460 882 395z"/>
<path d="M778 1326 c-88 -32 -139 -94 -146 -180 -5 -66 11 -117 51 -163 65
-74 161 -92 254 -48 134 62 159 241 49 343 -64 59 -133 75 -208 48z m138 -62
c94 -45 113 -191 33 -258 -70 -60 -161 -54 -222 13 -49 54 -56 106 -25 169 42
84 130 116 214 76z"/>
<path d="M556 845 c-48 -17 -83 -42 -110 -79 -18 -24 -21 -45 -24 -152 l-4
-124 25 0 c25 0 25 0 29 114 3 106 5 116 28 142 48 52 65 54 385 54 277 0 298
-1 335 -20 58 -30 70 -61 70 -185 l0 -105 30 0 30 0 0 98 c0 122 -10 159 -57
205 -61 61 -97 67 -417 67 -215 -1 -290 -4 -320 -15z"/>
</g>
</svg>
