<?xml version="1.0" standalone="no"?>
<!DOCTYPE svg PUBLIC "-//W3C//DTD SVG 20010904//EN"
 "http://www.w3.org/TR/2001/REC-SVG-20010904/DTD/svg10.dtd">
<svg version="1.0" xmlns="http://www.w3.org/2000/svg"
 width="181.000000pt" height="181.000000pt" viewBox="0 0 181.000000 181.000000"
 preserveAspectRatio="xMidYMid meet">
<g class="fill-full" transform="translate(0.000000,181.000000) scale(0.100000,-0.100000)"
fill="#bc0073" stroke="none">
<path d="M835 1804 c-52 -7 -179 -35 -200 -44 -11 -5 -45 -19 -75 -31 -30 -12
-62 -28 -71 -36 -8 -7 -19 -13 -23 -13 -11 0 -127 -92 -168 -133 -40 -40 -102
-116 -111 -137 -4 -8 -16 -28 -27 -45 -11 -16 -24 -41 -30 -55 -5 -14 -15 -33
-20 -42 -6 -10 -10 -23 -10 -29 0 -6 -7 -25 -14 -42 -28 -60 -41 -152 -41
-292 0 -140 13 -232 41 -292 7 -17 14 -36 14 -42 0 -6 4 -19 10 -29 5 -9 15
-28 20 -42 6 -14 19 -38 30 -55 11 -16 23 -37 27 -45 9 -21 71 -97 111 -137
41 -41 157 -133 168 -133 4 0 15 -6 23 -13 9 -8 41 -24 71 -36 30 -12 64 -26
75 -31 29 -12 151 -38 215 -45 72 -8 272 19 325 44 11 6 45 20 75 32 30 12 62
28 71 36 8 7 19 13 23 13 11 0 134 97 171 135 39 39 100 116 109 135 3 8 15
29 26 45 23 37 60 114 60 127 0 6 6 24 14 41 60 135 60 449 0 584 -8 17 -14
36 -14 42 0 6 -4 19 -10 29 -5 9 -15 28 -20 42 -6 14 -19 39 -30 55 -11 17
-23 37 -27 45 -8 19 -69 95 -108 135 -36 37 -159 135 -171 135 -4 0 -15 6 -23
13 -9 8 -41 24 -71 36 -30 12 -64 26 -75 31 -66 28 -267 54 -340 44z m119
-575 c49 -29 76 -79 76 -142 0 -43 -5 -59 -30 -88 -33 -41 -85 -69 -125 -69
-44 0 -113 40 -137 79 -26 44 -28 113 -5 158 40 77 146 107 221 62z m282 -406
c57 -19 90 -42 121 -86 18 -26 23 -51 29 -140 6 -94 5 -110 -10 -126 -18 -20
-44 -18 -58 3 -4 6 -8 55 -8 109 0 99 0 99 -33 132 -44 44 -68 47 -397 43
-265 -3 -276 -4 -311 -26 -46 -28 -52 -44 -58 -167 l-6 -100 -30 0 -30 0 -3
107 c-3 123 12 167 70 211 68 51 102 55 399 56 231 1 283 -2 325 -16z"/>
</g>
</svg>
