<?xml version="1.0" standalone="no"?>
<!DOCTYPE svg PUBLIC "-//W3C//DTD SVG 20010904//EN"
 "http://www.w3.org/TR/2001/REC-SVG-20010904/DTD/svg10.dtd">
<svg version="1.0" xmlns="http://www.w3.org/2000/svg"
 width="181.000000pt" height="181.000000pt" viewBox="0 0 181.000000 181.000000"
 preserveAspectRatio="xMidYMid meet">
<g class="fill-border" transform="translate(0.000000,181.000000) scale(0.100000,-0.100000)"
fill="#6f6f6f" stroke="none">
<path d="M850 1804 c-14 -2 -56 -9 -95 -15 -180 -27 -347 -113 -483 -247 -77
-77 -114 -127 -166 -228 -47 -92 -64 -141 -83 -239 -108 -551 314 -1065 877
-1068 559 -3 986 501 890 1053 -57 329 -293 599 -615 703 -87 28 -266 51 -325
41z m247 -74 c312 -75 558 -321 633 -633 27 -112 27 -273 0 -386 -92 -384
-430 -651 -825 -651 -330 0 -619 182 -763 480 -57 118 -82 228 -82 365 0 275
123 516 350 688 66 50 203 113 295 136 111 27 282 28 392 1z"/>
<path d="M963 1334 c-39 -19 -84 -60 -195 -181 -163 -178 -148 -138 -134 -363
l7 -125 -72 -78 c-68 -74 -71 -79 -55 -95 17 -16 22 -12 93 63 l75 80 163 3
164 3 133 145 c165 179 192 223 192 313 -1 195 -197 319 -371 235z m230 -61
c87 -61 116 -188 63 -276 -14 -23 -52 -69 -83 -103 l-58 -60 -125 -12 c-68 -6
-126 -9 -128 -7 -6 5 44 64 137 165 62 67 68 76 54 88 -9 6 -20 12 -24 12 -4
0 -56 -53 -115 -117 -190 -205 -212 -228 -219 -221 -4 4 -9 60 -11 125 l-5
118 76 80 c43 44 100 106 128 138 76 87 121 108 211 102 45 -2 69 -10 99 -32z
m-173 -543 l-32 -40 -124 0 c-68 0 -124 3 -124 8 0 4 12 18 27 32 28 27 76 36
206 39 l79 1 -32 -40z"/>
</g>
</svg>
