<?xml version="1.0" standalone="no"?>
<!DOCTYPE svg PUBLIC "-//W3C//DTD SVG 20010904//EN"
 "http://www.w3.org/TR/2001/REC-SVG-20010904/DTD/svg10.dtd">
<svg version="1.0" xmlns="http://www.w3.org/2000/svg"
 width="181.000000pt" height="181.000000pt" viewBox="0 0 181.000000 181.000000"
 preserveAspectRatio="xMidYMid meet">
<g class="fill-full" transform="translate(0.000000,181.000000) scale(0.100000,-0.100000)"
fill="#bc0073" stroke="none">
<path d="M761 1799 c-185 -31 -346 -113 -484 -248 -220 -213 -314 -504 -262
-806 33 -187 106 -326 250 -471 194 -196 420 -285 685 -271 230 13 417 95 583
256 278 270 354 672 193 1025 -166 364 -571 580 -965 515z m441 -466 c95 -52
144 -146 135 -259 -6 -85 -24 -112 -191 -293 l-138 -151 -160 0 -161 0 -78
-82 -77 -83 -23 22 -22 22 74 83 75 83 -9 162 -9 163 98 107 c55 59 117 127
139 151 44 48 109 90 158 103 52 13 136 1 189 -28z"/>
<path d="M995 1286 c-41 -20 -65 -42 -199 -187 l-116 -127 9 -106 c4 -58 10
-109 13 -111 3 -3 76 71 162 165 87 93 161 170 165 170 4 0 16 -9 26 -20 18
-20 18 -21 -16 -58 -127 -135 -170 -184 -166 -188 3 -3 57 0 122 5 l117 10 54
58 c30 32 66 78 81 103 54 89 28 206 -60 267 -47 33 -143 42 -192 19z"/>
<path d="M900 758 c-95 -8 -107 -11 -128 -35 -12 -14 -21 -27 -20 -28 2 -1 56
0 122 4 l119 6 25 33 c22 29 23 32 6 31 -11 -1 -66 -6 -124 -11z"/>
</g>
</svg>
