<?xml version="1.0" standalone="no"?>
<!DOCTYPE svg PUBLIC "-//W3C//DTD SVG 20010904//EN"
 "http://www.w3.org/TR/2001/REC-SVG-20010904/DTD/svg10.dtd">
<svg version="1.0" xmlns="http://www.w3.org/2000/svg"
 width="181.000000pt" height="181.000000pt" viewBox="0 0 181.000000 181.000000"
 preserveAspectRatio="xMidYMid meet">

<g class="fill-border" transform="translate(0.000000,181.000000) scale(0.100000,-0.100000)"
fill="#562363" stroke="none">
<path d="M850 1804 c-14 -2 -56 -9 -95 -15 -180 -27 -347 -113 -483 -247 -77 -77 -114 -127 -166 -228 -47 -92 -64 -141 -83 -239 -108 -551 314 -1065 877 -1068 559 -3 986 501 890 1053 -57 329 -293 599 -615 703 -87 28 -266 51 -325 41z m247 -74 c312 -75 558 -321 633 -633 27 -112 27 -273 0 -386 -92 -384 -430 -651 -825 -651 -330 0 -619 182 -763 480 -57 118 -82 228 -82 365 0 275 123 516 350 688 66 50 203 113 295 136 111 27 282 28 392 1z"/>
<path d="M322 1218 l3 -113 60 -5 60 -5 3 -307 2 -308 455 0 455 0 2 308 3
307 60 5 60 5 3 113 3 112 -586 0 -586 0 3 -112z m1126 9 c2 -35 -2 -64 -9
-73 -10 -12 -95 -14 -533 -14 -393 0 -525 3 -534 12 -13 13 -17 120 -5 131 3
4 248 6 542 5 l536 -3 3 -58z m-128 -417 l0 -290 -415 0 -415 0 0 290 0 290
415 0 415 0 0 -290z"/>
<path d="M790 970 c0 -19 7 -20 115 -20 108 0 115 1 115 20 0 19 -7 20 -115
20 -108 0 -115 -1 -115 -20z"/>
</g>
</svg>
