<?xml version="1.0" standalone="no"?>
<!DOCTYPE svg PUBLIC "-//W3C//DTD SVG 20010904//EN"
 "http://www.w3.org/TR/2001/REC-SVG-20010904/DTD/svg10.dtd">
<svg version="1.0" xmlns="http://www.w3.org/2000/svg"
 width="181.000000pt" height="181.000000pt" viewBox="0 0 181.000000 181.000000"
 preserveAspectRatio="xMidYMid meet">
<g class="fill-full" transform="translate(0.000000,181.000000) scale(0.100000,-0.100000)"
fill="#bc0073" stroke="none">
<path d="M765 1791 c-252 -31 -537 -245 -665 -501 -143 -284 -129 -547 43
-840 63 -105 222 -269 316 -324 79 -46 182 -81 282 -97 110 -17 335 -6 429 21
311 89 581 417 632 766 48 336 -212 776 -539 908 -123 50 -365 83 -498 67z
m735 -578 c0 -117 -12 -147 -58 -151 -59 -6 -62 -18 -69 -336 l-6 -286 -462 0
-462 0 -7 287 c-7 318 -10 329 -68 335 -46 4 -58 34 -58 151 l0 97 595 0 595
0 0 -97z"/>
<path d="M500 1241 c-53 -4 -101 -11 -108 -15 -7 -4 -12 -22 -12 -41 0 -32 3
-35 43 -46 59 -16 905 -16 965 0 42 12 43 13 40 48 -3 31 -8 38 -33 46 -38 11
-767 18 -895 8z"/>
<path d="M500 780 l0 -280 405 0 405 0 0 280 0 280 -405 0 -405 0 0 -280z
m493 179 c77 -21 25 -53 -88 -53 -76 0 -125 14 -125 34 0 25 144 39 213 19z"/>
</g>
</svg>
