<?xml version="1.0" standalone="no"?>
<!DOCTYPE svg PUBLIC "-//W3C//DTD SVG 20010904//EN"
 "http://www.w3.org/TR/2001/REC-SVG-20010904/DTD/svg10.dtd">
<svg version="1.0" xmlns="http://www.w3.org/2000/svg"
 width="181.000000pt" height="181.000000pt" viewBox="0 0 181.000000 181.000000"
 preserveAspectRatio="xMidYMid meet">

<g class="fill-border" transform="translate(0.000000,181.000000) scale(0.100000,-0.100000)"
fill="#562363" stroke="none">
<path d="M794 1800 c-82 -10 -217 -51 -289 -88 -396 -199 -591 -655 -459
-1074 47 -147 115 -261 223 -369 308 -307 782 -351 1146 -106 321 216 466 637
349 1009 -78 248 -252 445 -488 553 -139 64 -330 93 -482 75z m268 -64 c171
-33 312 -108 439 -235 126 -127 197 -258 233 -434 42 -202 -3 -443 -116 -617
-54 -83 -175 -204 -258 -258 -142 -92 -317 -138 -494 -129 -249 12 -454 116
-618 310 -220 263 -249 663 -68 968 176 296 541 460 882 395z"/>
<path d="M852 1234 c-106 -28 -185 -93 -239 -196 -26 -48 -28 -62 -28 -158 0
-127 19 -175 105 -261 90 -91 217 -126 340 -95 115 30 199 99 249 206 22 47
26 68 26 152 0 105 -9 127 -43 109 -18 -9 -19 -15 -10 -53 41 -180 -114 -368
-303 -368 -89 0 -149 23 -213 81 -72 66 -100 130 -100 229 0 57 5 88 23 128
31 68 113 145 182 167 95 32 233 8 302 -53 16 -14 19 -14 39 5 l21 21 -54 36
c-57 37 -150 66 -209 65 -19 0 -59 -7 -88 -15z"/>
<path d="M1140 990 c-94 -121 -175 -220 -179 -220 -4 0 -33 36 -65 81 -57 79
-70 88 -89 58 -7 -11 11 -44 69 -126 44 -61 82 -109 86 -107 13 8 388 495 388
504 0 5 -9 14 -19 20 -17 9 -39 -15 -191 -210z"/>
</g>
</svg>
