<svg xmlns="http://www.w3.org/2000/svg" width="384" height="384" viewBox="0 0 384 384">
  <path id="download" d="M337.509,305.372h-17.5l-6.571-5.486c20.791-25.232,33.922-57.054,33.922-93.257A142.148,142.148,0,0,0,205.135,64C127.452,64,64,127.632,64,206.629A142.14,142.14,0,0,0,206.225,349.257c35.011,0,67.831-13.167,92.991-34.008l6.561,5.487v17.551L415.18,448,448,415.086Zm-131.284,0a98.743,98.743,0,1,1,98.462-98.743A98.194,98.194,0,0,1,206.225,305.372Z" transform="translate(-64 -64)" fill="#d1198a"/>
</svg>
