<?xml version="1.0" encoding="utf-8"?>
<svg version="1.1" xmlns:xlink="http://www.w3.org/1999/xlink" width="11px" height="11px" xmlns="http://www.w3.org/2000/svg">
  <g transform="matrix(1 0 0 1 -313 -305 )">
    <path d="M 0.846153846153846 8.44642857142857  L 0.846153846153846 10.2142857142857  L 2.75 10.2142857142857  L 2.75 8.44642857142857  L 0.846153846153846 8.44642857142857  Z M 3.17307692307692 8.44642857142857  L 3.17307692307692 10.2142857142857  L 5.28846153846154 10.2142857142857  L 5.28846153846154 8.44642857142857  L 3.17307692307692 8.44642857142857  Z M 0.846153846153846 6.08928571428571  L 0.846153846153846 8.05357142857143  L 2.75 8.05357142857143  L 2.75 6.08928571428571  L 0.846153846153846 6.08928571428571  Z M 3.17307692307692 6.08928571428571  L 3.17307692307692 8.05357142857143  L 5.28846153846154 8.05357142857143  L 5.28846153846154 6.08928571428571  L 3.17307692307692 6.08928571428571  Z M 0.846153846153846 3.92857142857143  L 0.846153846153846 5.69642857142857  L 2.75 5.69642857142857  L 2.75 3.92857142857143  L 0.846153846153846 3.92857142857143  Z M 5.71153846153846 8.44642857142857  L 5.71153846153846 10.2142857142857  L 7.82692307692308 10.2142857142857  L 7.82692307692308 8.44642857142857  L 5.71153846153846 8.44642857142857  Z M 3.17307692307692 3.92857142857143  L 3.17307692307692 5.69642857142857  L 5.28846153846154 5.69642857142857  L 5.28846153846154 3.92857142857143  L 3.17307692307692 3.92857142857143  Z M 8.25 8.44642857142857  L 8.25 10.2142857142857  L 10.1538461538462 10.2142857142857  L 10.1538461538462 8.44642857142857  L 8.25 8.44642857142857  Z M 5.71153846153846 6.08928571428571  L 5.71153846153846 8.05357142857143  L 7.82692307692308 8.05357142857143  L 7.82692307692308 6.08928571428571  L 5.71153846153846 6.08928571428571  Z M 3.32181490384615 2.88811383928571  C 3.36368189102564 2.84923735119048  3.38461538461539 2.8031994047619  3.38461538461539 2.75  L 3.38461538461539 0.982142857142857  C 3.38461538461539 0.928943452380952  3.36368189102564 0.88290550595238  3.32181490384615 0.844029017857143  C 3.27994791666667 0.805152529761904  3.23036858974359 0.785714285714285  3.17307692307692 0.785714285714285  L 2.75 0.785714285714285  C 2.69270833333333 0.785714285714285  2.64312900641026 0.805152529761904  2.60126201923077 0.844029017857143  C 2.55939503205128 0.88290550595238  2.53846153846154 0.928943452380952  2.53846153846154 0.982142857142857  L 2.53846153846154 2.75  C 2.53846153846154 2.8031994047619  2.55939503205128 2.84923735119048  2.60126201923077 2.88811383928571  C 2.64312900641026 2.92699032738095  2.69270833333333 2.94642857142857  2.75 2.94642857142857  L 3.17307692307692 2.94642857142857  C 3.23036858974359 2.94642857142857  3.27994791666667 2.92699032738095  3.32181490384615 2.88811383928571  Z M 8.25 6.08928571428571  L 8.25 8.05357142857143  L 10.1538461538462 8.05357142857143  L 10.1538461538462 6.08928571428571  L 8.25 6.08928571428571  Z M 5.71153846153846 3.92857142857143  L 5.71153846153846 5.69642857142857  L 7.82692307692308 5.69642857142857  L 7.82692307692308 3.92857142857143  L 5.71153846153846 3.92857142857143  Z M 8.25 3.92857142857143  L 8.25 5.69642857142857  L 10.1538461538462 5.69642857142857  L 10.1538461538462 3.92857142857143  L 8.25 3.92857142857143  Z M 8.39873798076923 2.88811383928571  C 8.44060496794872 2.84923735119048  8.46153846153846 2.8031994047619  8.46153846153846 2.75  L 8.46153846153846 0.982142857142857  C 8.46153846153846 0.928943452380952  8.44060496794872 0.88290550595238  8.39873798076923 0.844029017857143  C 8.35687099358974 0.805152529761904  8.30729166666667 0.785714285714285  8.25 0.785714285714285  L 7.82692307692308 0.785714285714285  C 7.76963141025641 0.785714285714285  7.72005208333333 0.805152529761904  7.67818509615385 0.844029017857143  C 7.63631810897436 0.88290550595238  7.61538461538462 0.928943452380952  7.61538461538462 0.982142857142857  L 7.61538461538462 2.75  C 7.61538461538462 2.8031994047619  7.63631810897436 2.84923735119048  7.67818509615385 2.88811383928571  C 7.72005208333333 2.92699032738095  7.76963141025641 2.94642857142857  7.82692307692308 2.94642857142857  L 8.25 2.94642857142857  C 8.30729166666667 2.94642857142857  8.35687099358974 2.92699032738095  8.39873798076923 2.88811383928571  Z M 10.7487980769231 1.8046875  C 10.916266025641 1.96019345238095  11 2.14434523809524  11 2.35714285714286  L 11 10.2142857142857  C 11 10.4270833333333  10.916266025641 10.6112351190476  10.7487980769231 10.7667410714286  C 10.5813301282051 10.9222470238095  10.3830128205128 11  10.1538461538462 11  L 0.846153846153846 11  C 0.61698717948718 11  0.418669871794872 10.9222470238095  0.251201923076923 10.7667410714286  C 0.0837339743589744 10.6112351190476  0 10.4270833333333  0 10.2142857142857  L 0 2.35714285714286  C 0 2.14434523809524  0.0837339743589744 1.96019345238095  0.251201923076923 1.8046875  C 0.418669871794872 1.64918154761905  0.61698717948718 1.57142857142857  0.846153846153846 1.57142857142857  L 1.69230769230769 1.57142857142857  L 1.69230769230769 0.982142857142857  C 1.69230769230769 0.712053571428572  1.7958733974359 0.480840773809523  2.00300480769231 0.288504464285715  C 2.21013621794872 0.0961681547619049  2.45913461538462 0  2.75 0  L 3.17307692307692 0  C 3.46394230769231 0  3.71294070512821 0.0961681547619049  3.92007211538462 0.288504464285715  C 4.12720352564103 0.480840773809523  4.23076923076923 0.712053571428572  4.23076923076923 0.982142857142857  L 4.23076923076923 1.57142857142857  L 6.76923076923077 1.57142857142857  L 6.76923076923077 0.982142857142857  C 6.76923076923077 0.712053571428572  6.87279647435897 0.480840773809523  7.07992788461539 0.288504464285715  C 7.2870592948718 0.0961681547619049  7.53605769230769 0  7.82692307692308 0  L 8.25 0  C 8.54086538461539 0  8.78986378205128 0.0961681547619049  8.99699519230769 0.288504464285715  C 9.2041266025641 0.480840773809523  9.30769230769231 0.712053571428572  9.30769230769231 0.982142857142857  L 9.30769230769231 1.57142857142857  L 10.1538461538462 1.57142857142857  C 10.3830128205128 1.57142857142857  10.5813301282051 1.64918154761905  10.7487980769231 1.8046875  Z " fill-rule="nonzero" fill="#333333" stroke="none" transform="matrix(1 0 0 1 313 305 )" />
  </g>
</svg>